<?xml version="1.0" encoding="UTF-8" standalone="no"?>
<!DOCTYPE svg PUBLIC "-//W3C//DTD SVG 1.1//EN" "http://www.w3.org/Graphics/SVG/1.1/DTD/svg11.dtd">
<svg width="100%" height="100%" viewBox="0 0 280 280" version="1.1" xmlns="http://www.w3.org/2000/svg" xmlns:xlink="http://www.w3.org/1999/xlink" xml:space="preserve" xmlns:serif="http://www.serif.com/" style="fill-rule:evenodd;clip-rule:evenodd;stroke-linejoin:round;stroke-miterlimit:2;">
    <g transform="matrix(1,0,0,1,-850.608,-268.883)">
        <g transform="matrix(4.16667,0,0,4.16667,0,0)">
            <path d="M253.674,89.3L249.091,89.3C248.561,89.3 248.161,89.7 248.161,90.23L248.161,91.233C248.161,91.762 248.561,92.162 249.091,92.162L251.634,92.162C251.629,97.436 251.515,98.06 251.308,98.742C250.898,99.913 250.02,100.506 248.696,100.506C247.374,100.506 246.496,99.913 246.093,98.764C245.868,98.023 245.76,97.357 245.76,90.373C245.76,83.39 245.868,82.723 246.087,82.001C246.498,80.799 247.316,80.24 248.661,80.24C250.363,80.24 251.299,81.189 251.606,83.235C251.651,83.505 251.79,83.725 251.997,83.857C252.148,83.951 252.401,84.044 252.716,83.952L253.754,83.737L253.819,83.719C254.292,83.562 254.53,83.154 254.455,82.635C253.997,79.222 251.939,77.341 248.661,77.341C245.896,77.341 244.012,78.629 243.215,81.063C242.819,82.245 242.719,83.315 242.719,90.373C242.719,97.432 242.819,98.501 243.213,99.681C244.012,102.116 245.895,103.404 248.661,103.404C251.426,103.404 253.311,102.116 254.109,99.684C254.504,98.501 254.603,97.512 254.603,91.196L254.603,90.23C254.603,89.7 254.204,89.3 253.674,89.3ZM251.705,113.256C251.705,115.013 251.102,115.935 249.632,116.436C248.766,116.715 240.484,116.909 233.591,116.909C228.196,116.909 226.833,116.763 225.827,116.439C224.348,115.935 223.744,115.013 223.744,113.256L223.744,111.179L251.705,111.179L251.705,113.256ZM253.479,108.245L221.97,108.245C221.447,108.245 221.052,108.64 221.052,109.164L221.052,113.478C221.052,116.5 222.348,118.388 225.014,119.25C226.364,119.688 227.87,119.843 233.641,119.843C233.791,119.843 248.627,119.837 250.434,119.25C253.101,118.388 254.398,116.5 254.398,113.478L254.398,109.164C254.398,108.64 254.003,108.245 253.479,108.245ZM227.025,103.404C231.039,103.404 232.752,101.145 232.752,95.851C232.752,91.776 231.632,89.953 228.307,88.624L226.839,88.05C225.209,87.41 224.482,86.658 224.482,83.893C224.482,80.831 225.512,80.204 227.06,80.204C228.366,80.204 229.591,80.645 229.711,83.821C229.711,84.112 229.833,84.371 230.046,84.532C230.255,84.69 230.52,84.737 230.799,84.667L231.812,84.492L231.895,84.471C232.537,84.257 232.537,83.713 232.537,83.519C232.421,79.42 230.566,77.341 227.025,77.341C223.366,77.341 221.511,79.569 221.511,83.964C221.511,87.981 222.6,89.694 225.993,91.013L227.462,91.587C229.034,92.198 229.782,93.024 229.782,96.066C229.782,100.206 228.549,100.543 227.06,100.543C225.407,100.543 224.333,99.84 224.088,96.388C224.088,95.987 223.889,95.773 223.771,95.681C223.625,95.567 223.368,95.449 223.01,95.541L221.954,95.753C221.682,95.798 221.225,95.982 221.226,96.735C221.418,101.16 223.369,103.404 227.025,103.404ZM237.73,128.257C237.592,128.257 237.45,128.257 237.311,128.255C220.69,128.027 207.352,114.319 207.58,97.697C207.806,81.216 221.286,67.963 237.718,67.963C237.858,67.963 237.998,67.964 238.138,67.966C254.76,68.194 268.097,81.902 267.869,98.524C267.644,115.006 254.164,128.259 237.73,128.257ZM238.185,64.535C238.028,64.533 237.874,64.532 237.717,64.532C219.417,64.532 204.401,79.294 204.149,97.651C203.896,116.163 218.751,131.432 237.264,131.686C237.421,131.688 237.575,131.689 237.731,131.689C256.032,131.689 271.049,116.927 271.3,98.571C271.553,80.058 256.698,64.789 238.185,64.535Z" style="fill:rgb(226,65,99);fill-rule:nonzero;"/>
        </g>
    </g>
</svg>
