<svg xmlns="http://www.w3.org/2000/svg" width="225.92" height="173.246" viewBox="0 0 225.92 173.246"><g transform="translate(-64 -7007.035)"><text transform="translate(246.922 7178.281)" fill="#0b292e" font-size="9" font-family="Helvetica" letter-spacing="0.12em"><tspan x="-167.261" y="0" xml:space="preserve">MONDAY - FRIDAY  •  8AM - 5PM</tspan></text><path d="M74.177,8886.21l-7.543,17.772,5.192,25.486s9.912,11.8,12.744,14.633,22.183,13.688,22.183,13.688l19.351,5.191,22.656-1.889,23.891-15s-3.493-10.521-4.96-10.975-27.9-1.4-30.259-1.4-23.6-8.97-25.015-9.441-19.351-12.743-19.351-12.743l-12.154-23.808Z" transform="translate(4.771 -1865.727)" fill="#ffd400"/><path d="M133.3,8962.078a56.257,56.257,0,0,1-12.725-1.475c-23.628-5.479-41.9-17.461-50.121-32.874-6.393-11.981-6.747-25.671-1.05-40.69a1.5,1.5,0,0,1,.223-.393l3.269-4.146a1.485,1.485,0,0,1,1.716-.46l6.171,2.45a1.494,1.494,0,0,1,.782.721c.154.311.338.795.643,1.6,8.022,21.109,20.876,34.4,38.2,39.5,28.964,8.528,48.18,4.428,48.372,4.386a1.483,1.483,0,0,1,1.268.3l4.595,3.795a1.489,1.489,0,0,1,.537,1.054l.429,6.892a1.486,1.486,0,0,1-.369,1.075,58.262,58.262,0,0,1-14.935,11.286A56.9,56.9,0,0,1,133.3,8962.078Zm-61.2-73.771c-5.3,14.1-4.968,26.888.974,38.023,7.821,14.656,25.378,26.094,48.17,31.377a52.25,52.25,0,0,0,37.55-5.166,58.152,58.152,0,0,0,13.81-10.255l-.35-5.608-3.554-2.937c-3.856.7-22.259,3.333-49.13-4.579-11.7-3.443-21.609-10.566-29.457-21.17a81.847,81.847,0,0,1-10.685-20.128c-.116-.306-.228-.6-.322-.841l-4.563-1.813Z" transform="translate(5.074 -1864.696)" fill="#0b292e"/><path d="M140.2,8955.273a75.593,75.593,0,0,1-13.605-1.268c-15.167-2.786-30.051-10.189-38.843-19.324-8.456-8.787-11.721-21.863-12.97-31.285a96.045,96.045,0,0,1-.7-18.431l2.963.237a94.917,94.917,0,0,0,.7,17.863c1.2,8.961,4.274,21.362,12.158,29.554,8.383,8.71,22.651,15.784,37.238,18.462,12.508,2.3,30.864,2.468,47.274-9.762l1.776,2.384A59.143,59.143,0,0,1,140.2,8955.273Z" transform="translate(3.016 -1865.425)" fill="#0b292e"/><path d="M198.946,8949.574s-1.406,3.9-1.13,5.017,6.09,5.959,6.09,5.959l1.921-3.5-1.5-6.32Z" transform="translate(-26.86 -1881.009)" fill="#0b292e"/><path d="M72.513,8888.111a84.323,84.323,0,0,0,10.82,2.761l-4.141-5.255-1.892-1.428Z" transform="translate(3.353 -1865.239)" fill="#0b292e"/><g transform="translate(84.34 7040.381)"><ellipse cx="1.465" cy="1.842" rx="1.465" ry="1.842" transform="matrix(0.903, -0.429, 0.429, 0.903, 1.032, 1.258)" fill="#0b292e"/><ellipse cx="1.465" cy="1.842" rx="1.465" ry="1.842" transform="matrix(0.903, -0.429, 0.429, 0.903, 5.469, 3.042)" fill="#0b292e"/><ellipse cx="1.465" cy="1.842" rx="1.465" ry="1.842" transform="matrix(0.903, -0.429, 0.429, 0.903, 0, 6.398)" fill="#0b292e"/><ellipse cx="1.325" cy="1.669" rx="1.325" ry="1.669" transform="translate(7.755 12.5) rotate(-37.284)" fill="#0b292e"/><ellipse cx="1.302" cy="1.638" rx="1.302" ry="1.638" transform="matrix(0.668, -0.745, 0.745, 0.668, 3.256, 11.534)" fill="#0b292e"/><ellipse cx="1.263" cy="1.842" rx="1.263" ry="1.842" transform="translate(8.693 7.975) rotate(-37.284)" fill="#0b292e"/><ellipse cx="1.465" cy="1.842" rx="1.465" ry="1.842" transform="translate(4.084 7.261) rotate(-34.998)" fill="#0b292e"/></g><path d="M98.4,8893.507a1.15,1.15,0,0,1-.3-.042,1.063,1.063,0,0,1-.725-1.314l5.3-18.285a1.061,1.061,0,0,1,2.039.589l-5.3,18.286A1.064,1.064,0,0,1,98.4,8893.507Z" transform="translate(-2.633 -1862.564)" fill="#0b292e"/><path d="M110.028,8890.067a1.061,1.061,0,0,1-.911-1.605L120.744,8869a1.061,1.061,0,1,1,1.823,1.088l-11.626,19.459A1.062,1.062,0,0,1,110.028,8890.067Z" transform="translate(-5.439 -1861.452)" fill="#0b292e"/><path d="M108.473,8905.344a1.061,1.061,0,0,1-.455-2.021l16.452-7.8a1.061,1.061,0,1,1,.909,1.918l-16.452,7.8A1.059,1.059,0,0,1,108.473,8905.344Z" transform="translate(-5.064 -1867.948)" fill="#0b292e"/><path d="M109.59,8913.172a1.061,1.061,0,0,1-.2-2.1l7.063-1.355a1.061,1.061,0,0,1,.4,2.085l-7.064,1.354A1.085,1.085,0,0,1,109.59,8913.172Z" transform="translate(-5.334 -1871.391)" fill="#0b292e"/><path d="M167.844,8937.83a1.061,1.061,0,0,1-1.018-.765l-3.578-12.278a1.061,1.061,0,0,1,2.038-.592l3.578,12.276a1.061,1.061,0,0,1-.722,1.315A1.048,1.048,0,0,1,167.844,8937.83Z" transform="translate(-18.521 -1874.704)" fill="#0b292e"/><path d="M176.785,8935.32a1.061,1.061,0,0,1-1.061-1.045l-.309-20.172a1.062,1.062,0,0,1,1.046-1.077h.016a1.062,1.062,0,0,1,1.062,1.046l.308,20.171a1.062,1.062,0,0,1-1.045,1.077Z" transform="translate(-21.466 -1872.195)" fill="#0b292e"/><path d="M186.883,8939.862a1.062,1.062,0,0,1-.951-1.533l5.146-10.382a1.061,1.061,0,0,1,1.9.942l-5.146,10.383A1.063,1.063,0,0,1,186.883,8939.862Z" transform="translate(-23.976 -1875.652)" fill="#0b292e"/><g transform="translate(145.91 7071.659)"><ellipse cx="1.465" cy="1.842" rx="1.465" ry="1.842" transform="translate(0 5.42) rotate(-79.42)" fill="#0b292e"/><ellipse cx="1.465" cy="1.842" rx="1.465" ry="1.842" transform="translate(4.051 2.88) rotate(-79.42)" fill="#0b292e"/><ellipse cx="1.465" cy="1.842" rx="1.465" ry="1.842" transform="translate(3.55 9.277) rotate(-79.42)" fill="#0b292e"/><ellipse cx="1.669" cy="1.325" rx="1.669" ry="1.325" transform="matrix(1, -0.022, 0.022, 1, 12.987, 3.943)" fill="#0b292e"/><ellipse cx="1.638" cy="1.302" rx="1.638" ry="1.302" transform="matrix(0.978, -0.21, 0.21, 0.978, 9.073, 7.117)" fill="#0b292e"/><ellipse cx="1.842" cy="1.263" rx="1.842" ry="1.263" transform="matrix(1, -0.022, 0.022, 1, 9.882, 0.646)" fill="#0b292e"/><ellipse cx="1.465" cy="1.842" rx="1.465" ry="1.842" transform="matrix(0.018, -1, 1, 0.018, 6.649, 6.481)" fill="#0b292e"/></g><g transform="translate(64 7124.544)"><path d="M76.534,9054.606c-.846,4.562-3.668,7.1-9.453,7.1-5.268,0-7.854-2.3-8.889-5.785-.94-3.009-1.317-8.653-1.317-13.592a52.449,52.449,0,0,1,1.082-12.086c.94-4.469,3.95-6.772,9.5-6.772,5.784,0,8.419,2.821,9.077,7.806a49.267,49.267,0,0,1,.376,6.257H70.232a33.919,33.919,0,0,0-.47-5.646,2.3,2.3,0,0,0-2.446-1.975,2.519,2.519,0,0,0-2.728,2.07c-.423,1.74-.518,5.032-.518,10.3a75.525,75.525,0,0,0,.518,10.771,2.624,2.624,0,0,0,2.728,2.352A2.5,2.5,0,0,0,70,9052.913a49.793,49.793,0,0,0,.282-5.173h6.679A44.04,44.04,0,0,1,76.534,9054.606Z" transform="translate(-56.875 -9023.377)" fill="#fff"/><path d="M109.927,9030.573c.471,2.21.659,5.268.659,11.616a63.794,63.794,0,0,1-.752,12.04c-.8,4.655-3.621,7.478-9.454,7.478-5.737,0-8.371-2.681-9.359-6.96a69.652,69.652,0,0,1-.8-12.322c0-6.49.14-9.265.612-11.43.893-4.091,3.386-7.523,9.547-7.523C106.118,9023.472,108.894,9025.869,109.927,9030.573Zm-6.819,22.95c.47-1.5.612-5.644.612-11a64.33,64.33,0,0,0-.564-10.441c-.282-1.834-1.035-2.54-2.681-2.54-1.787,0-2.3.847-2.728,2.587a64.779,64.779,0,0,0-.518,10.488c0,5.267.188,9.312.658,10.957a2.413,2.413,0,0,0,2.588,2.117A2.57,2.57,0,0,0,103.108,9053.523Z" transform="translate(-64.918 -9023.377)" fill="#fff"/><path d="M137.067,9061.371l-5.926-18.717v18.717h-6.4V9023.84h6.538l5.878,18.344V9023.84h6.4v37.531Z" transform="translate(-73.245 -9023.464)" fill="#fff"/><path d="M168.946,9030.284v31.087h-6.961v-31.087h-5.69v-6.444h18.436v6.444Z" transform="translate(-80.854 -9023.464)" fill="#fff"/><path d="M189.069,9061.371H182.2l6.255-37.531H198.1l5.6,37.531h-6.96l-1.223-9.077h-5.126Zm4.421-25.725c-.188-1.977-.329-5.691-.329-5.691s-.234,3.669-.423,5.691c0,.188-1.694,11.1-1.694,11.1H194.9S193.49,9035.834,193.49,9035.646Z" transform="translate(-87.103 -9023.464)" fill="#fff"/><path d="M235.58,9054.606c-.847,4.562-3.669,7.1-9.454,7.1-5.267,0-7.854-2.3-8.889-5.785-.941-3.009-1.317-8.653-1.317-13.592A52.49,52.49,0,0,1,217,9030.244c.94-4.469,3.95-6.772,9.5-6.772,5.784,0,8.419,2.821,9.078,7.806a49.263,49.263,0,0,1,.376,6.257h-6.679a33.837,33.837,0,0,0-.47-5.646,2.3,2.3,0,0,0-2.446-1.975,2.52,2.52,0,0,0-2.728,2.07c-.423,1.74-.518,5.032-.518,10.3a75.636,75.636,0,0,0,.518,10.771,2.624,2.624,0,0,0,2.728,2.352,2.5,2.5,0,0,0,2.681-2.492,49.84,49.84,0,0,0,.282-5.173H236A44.117,44.117,0,0,1,235.58,9054.606Z" transform="translate(-95.236 -9023.377)" fill="#fff"/><path d="M260.741,9030.284v31.087h-6.96v-31.087H248.09v-6.444h18.437v6.444Z" transform="translate(-102.995 -9023.464)" fill="#fff"/><path d="M302.575,9061.748c-5.644,0-9.736-2.869-9.736-8.936V9023.84h6.819v28.784c0,2.07.941,3.151,2.822,3.151,1.693,0,2.68-1.129,2.68-3.1V9023.84h6.867v29.066C312.029,9058.5,308.36,9061.748,302.575,9061.748Z" transform="translate(-113.788 -9023.464)" fill="#fff"/><path d="M334.774,9061.677c-5.926,0-9.124-2.444-9.453-6.631a43.485,43.485,0,0,1-.094-4.468h6.537c0,1.74.047,3.057.094,3.34a2.412,2.412,0,0,0,2.728,2.068,2.582,2.582,0,0,0,2.822-2.916c0-3.15-.941-4.8-3.716-7.289-.47-.423-2.4-2.165-3.386-3.01-3.387-2.963-5.174-5.361-5.174-10.441,0-5.455,3.574-8.982,9.5-8.982,5.973,0,8.56,3.385,9.078,7.666a30.979,30.979,0,0,1,.281,3.857h-6.584a25.237,25.237,0,0,0-.188-3.059c-.189-1.5-.847-2.445-2.634-2.445-1.834,0-2.728.847-2.728,2.822,0,2.587,1.6,4.421,3.715,6.349.942.847,2.729,2.446,3.434,3.1,3.385,3.2,5.173,5.785,5.173,10.816C344.181,9058.291,340.418,9061.677,334.774,9061.677Z" transform="translate(-121.577 -9023.348)" fill="#fff"/></g><g transform="translate(65.194 7121.896)"><path d="M69.715,9060.34c-5.282,0-8.615-2.2-9.906-6.542-1.263-4.04-1.361-11.657-1.361-13.894a53.512,53.512,0,0,1,1.1-12.309c1.063-5.051,4.609-7.613,10.538-7.613,5.957,0,9.364,2.936,10.129,8.729a50.129,50.129,0,0,1,.385,6.395v1.061H71.8v-1.061a32.653,32.653,0,0,0-.455-5.462,1.259,1.259,0,0,0-1.4-1.1,1.479,1.479,0,0,0-1.7,1.266c-.4,1.66-.486,5.074-.486,10.041a71.274,71.274,0,0,0,.5,10.584,1.568,1.568,0,0,0,1.683,1.477c1.018,0,1.489-.453,1.628-1.562a48.532,48.532,0,0,0,.274-5.042v-1.062h8.8v1.062a44.538,44.538,0,0,1-.439,7.051l0,.009C79.23,9057.66,75.7,9060.34,69.715,9060.34Zm.376-38.234c-4.921,0-7.609,1.885-8.461,5.928A51.024,51.024,0,0,0,60.57,9039.9c0,4.455.334,10.281,1.269,13.275,1.024,3.441,3.525,5.039,7.876,5.039,5.014,0,7.608-1.922,8.409-6.229a37.949,37.949,0,0,0,.4-5.616H73.96c-.025,1.063-.093,2.747-.275,4.24a3.544,3.544,0,0,1-3.734,3.426,3.678,3.678,0,0,1-3.77-3.209,71.525,71.525,0,0,1-.536-10.975c0-5.256.09-8.668.548-10.551a3.581,3.581,0,0,1,3.758-2.881,3.351,3.351,0,0,1,3.494,2.87,34.252,34.252,0,0,1,.467,4.751h4.562a46.28,46.28,0,0,0-.357-5.057C77.487,9024.229,75.013,9022.105,70.091,9022.105Z" transform="translate(-58.448 -9019.888)" fill="#0b292e"/><path d="M103.015,9060.34c-5.785,0-9.185-2.543-10.393-7.781A69.125,69.125,0,0,1,91.795,9040c0-6.691.148-9.414.635-11.654,1.194-5.47,4.855-8.36,10.585-8.36,6.03,0,9.393,2.521,10.584,7.936l0,.006c.5,2.336.681,5.543.681,11.838a65.575,65.575,0,0,1-.767,12.219C112.561,9057.528,109.029,9060.34,103.015,9060.34Zm0-38.234c-4.743,0-7.527,2.187-8.51,6.688-.445,2.044-.587,4.767-.587,11.2a68.527,68.527,0,0,0,.772,12.085c.98,4.243,3.547,6.137,8.325,6.137,4.963,0,7.634-2.1,8.407-6.6a63.04,63.04,0,0,0,.738-11.861c0-6.129-.172-9.217-.634-11.392C110.558,9023.979,108.013,9022.105,103.015,9022.105Zm.094,32.217a3.47,3.47,0,0,1-3.607-2.889c-.47-1.646-.7-5.326-.7-11.248,0-3.793.094-8.732.543-10.723.4-1.66,1.057-3.415,3.763-3.415,2.184,0,3.369,1.093,3.73,3.441a66.05,66.05,0,0,1,.577,10.6c0,6.366-.2,9.856-.659,11.318A3.613,3.613,0,0,1,103.109,9054.322Zm0-26.15c-1.008,0-1.307.174-1.7,1.775-.179.8-.487,3.209-.487,10.238s.336,9.68.618,10.667c.306,1.069.628,1.347,1.566,1.347.885,0,1.294-.359,1.619-1.415l0,0c.563-1.8.563-8.49.563-10.687a64.252,64.252,0,0,0-.55-10.267C104.512,9028.326,104.068,9028.172,103.109,9028.172Z" transform="translate(-66.491 -9019.888)" fill="#0b292e"/><path d="M147.253,9060.007h-8.329l-4.087-12.911v12.911h-8.519v-39.654h8.373l4.043,12.614v-12.614h8.519Zm-6.775-2.123h4.652v-35.408h-4.274v17.28l-2.072.323-5.643-17.6h-4.7v35.408h4.273v-17.657l2.074-.321Z" transform="translate(-74.818 -9019.977)" fill="#0b292e"/><path d="M172.641,9060.007h-9.083v-31.089h-5.691v-8.565h20.559v8.565h-5.785Zm-6.961-2.123h4.838V9026.8H176.3v-4.32H159.99v4.32h5.69Z" transform="translate(-82.427 -9019.977)" fill="#0b292e"/><path d="M207.5,9060.007h-9.12l-1.222-9.077h-3.28l-1.317,9.077h-9.038l6.608-39.654h11.456Zm-7.264-2.123h4.8l-5.28-35.408h-7.827l-5.9,35.408h4.7l1.317-9.078h6.973Zm-1.555-12.5h-6.3l.19-1.226c.646-4.158,1.619-10.471,1.683-11.01l0-.024c.184-1.982.419-5.624.421-5.659l2.119.027c0,.037.143,3.708.326,5.631l0,.055c.062.6.867,6.865,1.4,11.008Zm-3.825-2.123h1.411c-.266-2.058-.476-3.687-.641-4.983C195.427,9039.568,195.175,9041.2,194.857,9043.257Z" transform="translate(-88.615 -9019.977)" fill="#0b292e"/><path d="M228.76,9060.34c-5.283,0-8.615-2.2-9.906-6.542-1.263-4.04-1.361-11.657-1.361-13.894a53.512,53.512,0,0,1,1.1-12.309c1.064-5.051,4.61-7.613,10.538-7.613,5.957,0,9.364,2.936,10.13,8.729a50.141,50.141,0,0,1,.385,6.395v1.061h-8.8v-1.061a32.733,32.733,0,0,0-.454-5.462,1.259,1.259,0,0,0-1.4-1.1,1.479,1.479,0,0,0-1.7,1.266c-.4,1.66-.486,5.074-.486,10.041a71.278,71.278,0,0,0,.5,10.584,1.567,1.567,0,0,0,1.683,1.477c1.017,0,1.489-.453,1.628-1.562a48.74,48.74,0,0,0,.274-5.042v-1.062h8.8v1.062a44.54,44.54,0,0,1-.439,7.051l0,.009C238.276,9057.66,234.744,9060.34,228.76,9060.34Zm.376-38.234c-4.921,0-7.609,1.885-8.461,5.928a51.07,51.07,0,0,0-1.059,11.871c0,4.455.333,10.281,1.268,13.275,1.024,3.441,3.525,5.039,7.876,5.039,5.014,0,7.608-1.922,8.408-6.229a37.856,37.856,0,0,0,.4-5.616h-4.566c-.026,1.063-.093,2.747-.275,4.24a3.545,3.545,0,0,1-3.734,3.426,3.677,3.677,0,0,1-3.77-3.209,71.491,71.491,0,0,1-.537-10.975c0-5.256.09-8.668.548-10.551a3.582,3.582,0,0,1,3.759-2.881,3.351,3.351,0,0,1,3.494,2.87,34.249,34.249,0,0,1,.467,4.751h4.562a46.284,46.284,0,0,0-.357-5.057C236.532,9024.229,234.058,9022.105,229.136,9022.105Z" transform="translate(-96.809 -9019.888)" fill="#0b292e"/><path d="M264.437,9060.007h-9.084v-31.089h-5.69v-8.565h20.559v8.565h-5.785Zm-6.961-2.123h4.837V9026.8H268.1v-4.32H251.785v4.32h5.691Z" transform="translate(-104.568 -9019.977)" fill="#0b292e"/><path d="M305.209,9060.382c-6.761,0-10.8-3.737-10.8-10v-30.032h8.943V9050.2c0,1.734.7,2.091,1.76,2.091.4,0,1.619,0,1.619-2.044v-29.892h8.99v30.126C315.724,9056.588,311.695,9060.382,305.209,9060.382Zm-8.674-37.906v27.909c0,2.941,1.127,7.875,8.674,7.875,5.333,0,8.392-2.836,8.392-7.781v-28h-4.744v27.769c0,2.568-1.434,4.166-3.742,4.166-2.468,0-3.883-1.536-3.883-4.213v-27.722Z" transform="translate(-115.361 -9019.977)" fill="#0b292e"/><path d="M337.409,9060.311c-6.3,0-10.132-2.773-10.512-7.609a30.89,30.89,0,0,1-.1-3.26c0-.361,0-.78,0-1.292v-1.061h8.66v1.061c0,1.854.052,2.979.08,3.17.085.553.351,1.178,1.681,1.178,1.234,0,1.76-.556,1.76-1.855,0-2.729-.723-4.127-3.364-6.5l-.112-.1c-.58-.521-2.343-2.109-3.255-2.893-3.6-3.148-5.544-5.87-5.544-11.246,0-6.1,4.145-10.044,10.561-10.044,5.853,0,9.449,3.044,10.128,8.571a32.333,32.333,0,0,1,.293,4.012v1.062h-8.707v-1.062a24.168,24.168,0,0,0-.181-2.935c-.146-1.167-.5-1.507-1.579-1.507-1.278,0-1.667.412-1.667,1.762,0,2.086,1.235,3.62,3.369,5.563l.627.564c1,.9,2.241,2.012,2.816,2.55,3.576,3.375,5.511,6.223,5.511,11.592C347.876,9056.275,343.768,9060.311,337.409,9060.311Zm-8.49-11.1v.243a28.758,28.758,0,0,0,.1,3.076c.367,4.676,4.768,5.657,8.4,5.657,5.225,0,8.345-3.051,8.345-8.157,0-4.654-1.561-6.947-4.841-10.045-.556-.518-1.842-1.676-2.781-2.519l-.634-.568c-1.97-1.795-4.066-3.972-4.066-7.138,0-2.5,1.345-3.885,3.789-3.885,2.166,0,3.406,1.137,3.686,3.375.09.783.147,1.461.175,2.129h4.452c-.049-.977-.144-2.1-.235-2.611l-.008-.058c-.372-3.069-2.066-6.731-8.024-6.731-5.284,0-8.439,2.962-8.439,7.922,0,4.62,1.552,6.791,4.812,9.642.923.793,2.639,2.339,3.286,2.921l.112.1c3.078,2.765,4.066,4.728,4.066,8.077a3.612,3.612,0,0,1-3.883,3.979,3.473,3.473,0,0,1-3.777-2.969c-.055-.331-.087-1.349-.1-2.439Z" transform="translate(-123.15 -9019.858)" fill="#0b292e"/></g></g></svg>