<svg xmlns="http://www.w3.org/2000/svg" width="414" height="317.982" viewBox="0 0 414 317.982"><g transform="translate(-90 -11768)"><path d="M72.513,8891.376c7.313,2.725,19.827,5.06,19.827,5.06l-7.588-9.629-3.467-2.617Z" transform="translate(39.232 2905.645)" fill="#0b292e"/><g transform="translate(127.274 11829.106)"><ellipse cx="2.685" cy="3.375" rx="2.685" ry="3.375" transform="matrix(0.903, -0.429, 0.429, 0.903, 1.891, 2.306)" fill="#0b292e"/><ellipse cx="2.685" cy="3.375" rx="2.685" ry="3.375" transform="matrix(0.903, -0.429, 0.429, 0.903, 10.022, 5.575)" fill="#0b292e"/><ellipse cx="2.685" cy="3.375" rx="2.685" ry="3.375" transform="matrix(0.903, -0.429, 0.429, 0.903, 0, 11.725)" fill="#0b292e"/><ellipse cx="2.428" cy="3.058" rx="2.428" ry="3.058" transform="translate(14.211 22.906) rotate(-37.284)" fill="#0b292e"/><ellipse cx="2.386" cy="3.002" rx="2.386" ry="3.002" transform="matrix(0.668, -0.745, 0.745, 0.668, 5.967, 21.136)" fill="#0b292e"/><ellipse cx="2.315" cy="3.375" rx="2.315" ry="3.375" transform="translate(15.931 14.614) rotate(-37.284)" fill="#0b292e"/><ellipse cx="2.685" cy="3.375" rx="2.685" ry="3.375" transform="translate(7.483 13.305) rotate(-34.998)" fill="#0b292e"/></g><path d="M99.281,8910.5a2.127,2.127,0,0,1-.542-.076,1.948,1.948,0,0,1-1.328-2.41l9.709-33.507a1.945,1.945,0,1,1,3.736,1.079l-9.707,33.508A1.949,1.949,0,0,1,99.281,8910.5Z" transform="translate(48.925 2901.314)" fill="#0b292e"/><path d="M110.911,8908.033a1.943,1.943,0,0,1-1.669-2.942l21.306-35.657a1.945,1.945,0,0,1,3.34,1.994l-21.306,35.658A1.946,1.946,0,0,1,110.911,8908.033Z" transform="translate(53.468 2899.513)" fill="#0b292e"/><path d="M109.358,8913.605a1.945,1.945,0,0,1-.834-3.7l30.149-14.295a1.944,1.944,0,1,1,1.666,3.514l-30.149,14.3A1.927,1.927,0,0,1,109.358,8913.605Z" transform="translate(52.86 2910.032)" fill="#0b292e"/><path d="M110.473,8916.067a1.945,1.945,0,0,1-.363-3.855l12.943-2.482a1.945,1.945,0,1,1,.733,3.819l-12.944,2.482A1.975,1.975,0,0,1,110.473,8916.067Z" transform="translate(53.297 2915.605)" fill="#0b292e"/><text transform="translate(434.019 12081.982)" fill="#0b292e" font-size="17" font-family="Helvetica" letter-spacing="0.12em"><tspan x="-315.938" y="0" xml:space="preserve">MONDAY - FRIDAY  •  8AM - 5PM</tspan></text><path d="M80.456,8886.21l-13.822,32.568,9.514,46.705S94.312,8987.108,99.5,8992.3s40.65,25.082,40.65,25.082l35.461,9.514,41.517-3.46,43.781-27.492s-6.4-19.278-9.09-20.11-51.125-2.56-55.45-2.56-43.245-16.437-45.84-17.3-35.461-23.352-35.461-23.352L92.8,8888.99Z" transform="translate(36.936 2906.434)" fill="#ffd400"/><path d="M189.845,9028.8a103.065,103.065,0,0,1-23.319-2.7c-43.3-10.039-76.773-32-91.848-60.241-11.715-21.956-12.365-47.043-1.924-74.564a2.708,2.708,0,0,1,.409-.72l5.99-7.6a2.721,2.721,0,0,1,3.144-.843l11.309,4.49a2.739,2.739,0,0,1,1.434,1.319c.282.57.619,1.457,1.178,2.93,14.7,38.683,38.255,63.04,70.007,72.389,53.078,15.628,88.291,8.114,88.642,8.037a2.717,2.717,0,0,1,2.324.559l8.42,6.954a2.728,2.728,0,0,1,.984,1.931l.787,12.629a2.725,2.725,0,0,1-.676,1.971c-.406.46-10.14,11.368-27.368,20.682A104.278,104.278,0,0,1,189.845,9028.8ZM77.7,8893.611c-9.7,25.832-9.1,49.272,1.785,69.678,14.332,26.859,46.506,47.817,88.272,57.5,23.753,5.509,46.9,2.323,68.811-9.467a106.569,106.569,0,0,0,25.306-18.793l-.641-10.277-6.513-5.381c-7.067,1.29-40.79,6.107-90.032-8.392-21.438-6.311-39.6-19.364-53.98-38.795a149.976,149.976,0,0,1-19.58-36.884c-.213-.56-.419-1.1-.591-1.541l-8.363-3.323Z" transform="translate(36.446 2904.764)" fill="#0b292e"/><path d="M195.381,9013.806a138.438,138.438,0,0,1-24.932-2.323c-27.794-5.105-55.069-18.673-71.179-35.412-15.5-16.1-21.478-40.064-23.768-57.331a176,176,0,0,1-1.292-33.773l5.43.435a173.943,173.943,0,0,0,1.275,32.735c2.19,16.42,7.831,39.146,22.279,54.157,15.361,15.962,41.508,28.926,68.238,33.831,22.921,4.209,56.558,4.523,86.629-17.887l3.255,4.367C239.42,9008.921,215.8,9013.806,195.381,9013.806Z" transform="translate(39.779 2905.951)" fill="#0b292e"/><path d="M199.917,8949.574s-2.577,7.147-2.07,9.193,11.16,10.919,11.16,10.919l3.519-6.405-2.752-11.583Z" transform="translate(88.152 2931.18)" fill="#0b292e"/><path d="M171.705,8949.819a1.947,1.947,0,0,1-1.866-1.4l-6.556-22.5a1.945,1.945,0,0,1,3.735-1.086l6.556,22.5a1.946,1.946,0,0,1-1.324,2.411A1.992,1.992,0,0,1,171.705,8949.819Z" transform="translate(74.649 2920.969)" fill="#0b292e"/><path d="M177.925,8953.881a1.945,1.945,0,0,1-1.944-1.916L175.415,8915a1.946,1.946,0,0,1,1.916-1.975h.029a1.946,1.946,0,0,1,1.945,1.916l.565,36.964a1.946,1.946,0,0,1-1.915,1.975Z" transform="translate(79.417 2916.906)" fill="#0b292e"/><path d="M187.766,8950.273a1.946,1.946,0,0,1-1.742-2.81l9.431-19.025a1.945,1.945,0,0,1,3.486,1.728l-9.43,19.025A1.948,1.948,0,0,1,187.766,8950.273Z" transform="translate(83.481 2922.501)" fill="#0b292e"/><g transform="translate(240.102 11886.423)"><ellipse cx="2.685" cy="3.375" rx="2.685" ry="3.375" transform="translate(0 9.931) rotate(-79.42)" fill="#0b292e"/><ellipse cx="2.685" cy="3.375" rx="2.685" ry="3.375" transform="translate(7.424 5.278) rotate(-79.42)" fill="#0b292e"/><ellipse cx="2.685" cy="3.375" rx="2.685" ry="3.375" transform="translate(6.506 16.999) rotate(-79.42)" fill="#0b292e"/><ellipse cx="3.058" cy="2.428" rx="3.058" ry="2.428" transform="matrix(1, -0.022, 0.022, 1, 23.799, 7.225)" fill="#0b292e"/><ellipse cx="3.002" cy="2.386" rx="3.002" ry="2.386" transform="matrix(0.978, -0.21, 0.21, 0.978, 16.626, 13.041)" fill="#0b292e"/><ellipse cx="3.375" cy="2.315" rx="3.375" ry="2.315" transform="matrix(1, -0.022, 0.022, 1, 18.108, 1.184)" fill="#0b292e"/><ellipse cx="2.685" cy="3.375" rx="2.685" ry="3.375" transform="matrix(0.018, -1, 1, 0.018, 12.185, 11.876)" fill="#0b292e"/></g><g transform="translate(90 11983.336)"><path d="M92.9,9080.526c-1.55,8.358-6.722,13.012-17.323,13.012-9.653,0-14.393-4.222-16.29-10.6-1.723-5.515-2.413-15.858-2.413-24.908,0-9.222.431-14.822,1.983-22.148,1.723-8.189,7.239-12.41,17.409-12.41,10.6,0,15.428,5.171,16.633,14.3a90.267,90.267,0,0,1,.688,11.465H81.351a62.131,62.131,0,0,0-.861-10.344,4.215,4.215,0,0,0-4.482-3.621c-2.845,0-4.4,1.382-5,3.795-.776,3.188-.948,9.222-.948,18.873,0,7.5.172,15.429.948,19.737a4.808,4.808,0,0,0,5,4.309c2.413,0,4.482-1.121,4.913-4.566a91.25,91.25,0,0,0,.516-9.48H93.677A80.715,80.715,0,0,1,92.9,9080.526Z" transform="translate(-56.875 -9023.299)" fill="#fff"/><path d="M126.332,9036.485c.864,4.05,1.207,9.653,1.207,21.288,0,11.289-.343,15.943-1.378,22.063-1.466,8.531-6.636,13.7-17.325,13.7-10.514,0-15.34-4.912-17.151-12.754-.948-4.137-1.464-13.015-1.464-22.58,0-11.894.257-16.978,1.121-20.945,1.637-7.5,6.2-13.787,17.494-13.787C119.352,9023.472,124.439,9027.865,126.332,9036.485Zm-12.5,42.058c.862-2.759,1.121-10.343,1.121-20.166,0-9.739-.343-15-1.033-19.134-.517-3.361-1.9-4.654-4.913-4.654-3.275,0-4.223,1.552-5,4.739-.6,2.672-.948,9.31-.948,19.22,0,9.652.345,17.064,1.206,20.081.69,2.412,1.81,3.878,4.742,3.878S113.146,9080.784,113.836,9078.543Z" transform="translate(-43.852 -9023.299)" fill="#fff"/><path d="M147.326,9092.617l-10.859-34.3v34.3H124.745v-68.776h11.981l10.772,33.613v-33.613H159.22v68.776Z" transform="translate(-30.37 -9023.152)" fill="#fff"/><path d="M179.478,9035.649v56.968H166.723v-56.968H156.295v-11.809h33.784v11.809Z" transform="translate(-18.049 -9023.152)" fill="#fff"/><path d="M194.786,9092.617H182.2l11.462-68.776h17.668l10.255,68.776H208.834l-2.242-16.635H197.2Zm8.1-47.143c-.345-3.62-.6-10.428-.6-10.428s-.43,6.723-.775,10.428c0,.345-3.1,20.34-3.1,20.34h7.068S202.887,9045.819,202.887,9045.475Z" transform="translate(-7.932 -9023.152)" fill="#fff"/><path d="M251.947,9080.526c-1.552,8.358-6.723,13.012-17.324,13.012-9.652,0-14.393-4.222-16.289-10.6-1.724-5.515-2.414-15.858-2.414-24.908,0-9.222.432-14.822,1.983-22.148,1.723-8.189,7.239-12.41,17.409-12.41,10.6,0,15.428,5.171,16.635,14.3a90.267,90.267,0,0,1,.688,11.465H240.4a61.983,61.983,0,0,0-.861-10.344,4.214,4.214,0,0,0-4.482-3.621c-2.844,0-4.4,1.382-5,3.795-.775,3.188-.948,9.222-.948,18.873,0,7.5.174,15.429.948,19.737a4.808,4.808,0,0,0,5,4.309c2.414,0,4.482-1.121,4.913-4.566a91.335,91.335,0,0,0,.517-9.48h12.238A80.858,80.858,0,0,1,251.947,9080.526Z" transform="translate(5.235 -9023.299)" fill="#fff"/><path d="M271.273,9035.649v56.968H258.519v-56.968H248.09v-11.809h33.785v11.809Z" transform="translate(17.799 -9023.152)" fill="#fff"/><path d="M310.68,9093.306c-10.343,0-17.84-5.256-17.84-16.373v-53.092h12.5v52.746c0,3.794,1.724,5.775,5.171,5.775,3.1,0,4.911-2.069,4.911-5.688v-52.833H328V9077.1C328,9087.361,321.28,9093.306,310.68,9093.306Z" transform="translate(35.274 -9023.152)" fill="#fff"/><path d="M342.8,9093.586c-10.86,0-16.72-4.479-17.323-12.151a79.682,79.682,0,0,1-.172-8.187h11.979c0,3.188.086,5.6.172,6.12.345,2.239,1.9,3.791,5,3.791,3.361,0,5.171-1.9,5.171-5.345,0-5.772-1.724-8.789-6.809-13.356-.862-.775-4.394-3.968-6.2-5.516-6.206-5.43-9.481-9.826-9.481-19.136,0-10,6.549-16.459,17.409-16.459,10.945,0,15.686,6.2,16.635,14.047a56.8,56.8,0,0,1,.516,7.069H347.627a46.249,46.249,0,0,0-.345-5.6c-.346-2.756-1.552-4.481-4.827-4.481-3.361,0-5,1.552-5,5.172,0,4.741,2.931,8.1,6.808,11.635,1.726,1.552,5,4.481,6.294,5.688,6.2,5.861,9.479,10.6,9.479,19.822C360.038,9087.383,353.142,9093.586,342.8,9093.586Z" transform="translate(47.885 -9023.348)" fill="#fff"/></g><g transform="translate(92.187 11978.484)"><path d="M79.094,9093.938c-9.679,0-15.787-4.034-18.153-11.989-2.314-7.4-2.493-21.361-2.493-25.46,0-9.717.51-15.409,2.025-22.555,1.948-9.257,8.446-13.952,19.312-13.952,10.916,0,17.16,5.38,18.562,16a91.861,91.861,0,0,1,.706,11.718v1.943H82.924V9047.7a59.839,59.839,0,0,0-.833-10.01,2.307,2.307,0,0,0-2.565-2.007c-1.822,0-2.693.647-3.111,2.319-.741,3.042-.891,9.3-.891,18.4,0,9.618.3,15.964.918,19.394.359,1.839,1.34,2.708,3.084,2.708,1.865,0,2.728-.832,2.983-2.864a88.936,88.936,0,0,0,.5-9.239v-1.945H99.139v1.945a81.621,81.621,0,0,1-.805,12.92l0,.018C96.532,9089.026,90.06,9093.938,79.094,9093.938Zm.69-70.066c-9.018,0-13.944,3.454-15.506,10.864-1.47,6.938-1.941,12.222-1.941,21.753,0,8.164.612,18.841,2.325,24.326,1.876,6.308,6.46,9.234,14.432,9.234,9.189,0,13.941-3.521,15.41-11.415a69.54,69.54,0,0,0,.737-10.292H86.873c-.046,1.948-.171,5.034-.5,7.77-.5,3.992-2.992,6.28-6.843,6.28a6.742,6.742,0,0,1-6.908-5.883c-.673-3.739-.983-10.119-.983-20.109,0-9.633.164-15.884,1-19.334a6.562,6.562,0,0,1,6.887-5.279,6.141,6.141,0,0,1,6.4,5.259,62.774,62.774,0,0,1,.855,8.705h8.36a84.8,84.8,0,0,0-.654-9.265C93.338,9027.763,88.8,9023.872,79.784,9023.872Z" transform="translate(-58.448 -9019.81)" fill="#0b292e"/><path d="M112.355,9093.938c-10.6,0-16.832-4.662-19.046-14.261-.948-4.14-1.514-12.743-1.514-23.019,0-12.262.271-17.251,1.164-21.356,2.189-10.022,8.9-15.32,19.4-15.32,11.05,0,17.213,4.62,19.395,14.541l0,.013c.911,4.279,1.249,10.157,1.249,21.692,0,10.918-.314,15.938-1.406,22.391C129.849,9088.785,123.377,9093.938,112.355,9093.938Zm0-70.066c-8.692,0-13.794,4.008-15.595,12.258-.815,3.746-1.076,8.734-1.076,20.529,0,9.849.542,18.335,1.416,22.146,1.8,7.775,6.5,11.244,15.255,11.244,9.1,0,13.99-3.839,15.406-12.086,1.061-6.271,1.352-10.945,1.352-21.735,0-11.231-.316-16.89-1.162-20.876C126.178,9027.3,121.515,9023.872,112.355,9023.872Zm.172,59.038c-4.571,0-5.961-3.019-6.611-5.293-.862-3.019-1.281-9.76-1.281-20.611,0-6.953.172-16,1-19.649.74-3.044,1.937-6.259,6.9-6.259,4,0,6.174,2,6.834,6.306.749,4.493,1.057,10.13,1.057,19.43,0,11.666-.373,18.062-1.207,20.742C118.122,9081.112,115.873,9082.91,112.528,9082.91Zm0-47.921c-1.848,0-2.394.319-3.109,3.255-.328,1.457-.893,5.879-.893,18.762s.616,17.736,1.132,19.546c.56,1.961,1.15,2.468,2.87,2.468,1.621,0,2.371-.657,2.967-2.593l0-.008c1.032-3.3,1.032-15.559,1.032-19.586,0-9.071-.292-14.522-1.008-18.813C115.1,9035.272,114.285,9034.989,112.528,9034.989Z" transform="translate(-45.425 -9019.81)" fill="#0b292e"/><path d="M164.682,9093.02H149.419l-7.489-23.66v23.66H126.318v-72.667h15.344l7.409,23.115v-23.115h15.611Zm-12.415-3.891h8.525v-64.886H152.96v31.666l-3.8.593-10.341-32.259h-8.614v64.886h7.83v-32.357l3.8-.588Z" transform="translate(-31.943 -9019.664)" fill="#0b292e"/><path d="M184.94,9093.02H168.3v-56.97H157.867v-15.7h37.675v15.7h-10.6Zm-12.755-3.891h8.866V9032.16h10.6v-7.917H161.758v7.917h10.428Z" transform="translate(-19.623 -9019.664)" fill="#0b292e"/><path d="M227.462,9093.02H210.749l-2.24-16.634H202.5l-2.413,16.634H183.523l12.11-72.667h20.993Zm-13.311-3.891h8.8l-9.675-64.886H198.93l-10.815,64.886h8.6l2.413-16.636H211.91Zm-2.849-22.913h-11.55l.348-2.246c1.183-7.62,2.966-19.187,3.084-20.177l0-.044c.338-3.633.768-10.306.772-10.371l3.884.051c0,.067.261,6.795.6,10.318l.008.1c.114,1.1,1.588,12.58,2.57,20.173Zm-7.01-3.891h2.585c-.487-3.77-.872-6.758-1.175-9.133C205.337,9055.565,204.876,9058.556,204.292,9062.325Z" transform="translate(-9.604 -9019.664)" fill="#0b292e"/><path d="M238.141,9093.938c-9.681,0-15.788-4.034-18.153-11.989-2.314-7.4-2.495-21.361-2.495-25.46,0-9.717.51-15.409,2.025-22.555,1.95-9.257,8.447-13.952,19.312-13.952,10.916,0,17.16,5.38,18.563,16a91.876,91.876,0,0,1,.705,11.718v1.943H241.97V9047.7a59.986,59.986,0,0,0-.833-10.01,2.308,2.308,0,0,0-2.566-2.007c-1.823,0-2.695.647-3.112,2.319-.741,3.042-.89,9.3-.89,18.4,0,9.618.3,15.964.918,19.394.357,1.839,1.339,2.708,3.084,2.708,1.863,0,2.728-.832,2.983-2.864a89.323,89.323,0,0,0,.5-9.239v-1.945h16.127v1.945a81.62,81.62,0,0,1-.805,12.92l0,.018C255.578,9089.026,249.107,9093.938,238.141,9093.938Zm.688-70.066c-9.018,0-13.944,3.454-15.506,10.864-1.468,6.938-1.94,12.222-1.94,21.753,0,8.164.61,18.841,2.324,24.326,1.877,6.308,6.46,9.234,14.434,9.234,9.189,0,13.941-3.521,15.408-11.415a69.358,69.358,0,0,0,.737-10.292h-8.367c-.047,1.948-.171,5.034-.5,7.77-.5,3.992-2.992,6.28-6.843,6.28a6.74,6.74,0,0,1-6.908-5.883c-.673-3.739-.984-10.119-.984-20.109,0-9.633.164-15.884,1-19.334a6.564,6.564,0,0,1,6.889-5.279,6.139,6.139,0,0,1,6.4,5.259,62.768,62.768,0,0,1,.857,8.705h8.36a84.8,84.8,0,0,0-.655-9.265C252.383,9027.763,247.848,9023.872,238.829,9023.872Z" transform="translate(3.662 -9019.81)" fill="#0b292e"/><path d="M276.736,9093.02H260.09v-56.97H249.663v-15.7h37.675v15.7h-10.6Zm-12.755-3.891h8.865V9032.16h10.6v-7.917H253.552v7.917h10.429Z" transform="translate(16.226 -9019.664)" fill="#0b292e"/><path d="M314.2,9093.707c-12.39,0-19.786-6.85-19.786-18.319v-55.035H310.8v54.69c0,3.178,1.29,3.832,3.226,3.832.734,0,2.967,0,2.967-3.745v-54.777h16.474v55.206C333.466,9086.754,326.083,9093.707,314.2,9093.707Zm-15.9-69.464v51.145c0,5.389,2.065,14.43,15.9,14.43,9.773,0,15.379-5.2,15.379-14.259v-51.315h-8.694v50.887c0,4.707-2.628,7.633-6.858,7.633-4.522,0-7.115-2.814-7.115-7.72v-50.8Z" transform="translate(33.701 -9019.664)" fill="#0b292e"/><path d="M346.319,9093.988c-11.545,0-18.566-5.083-19.263-13.944a56.606,56.606,0,0,1-.186-5.973c0-.664.008-1.432.008-2.369v-1.943h15.87v1.943c0,3.4.1,5.459.146,5.81.156,1.013.644,2.158,3.08,2.158,2.261,0,3.226-1.018,3.226-3.4,0-5-1.325-7.562-6.164-11.909l-.206-.187c-1.062-.957-4.293-3.866-5.965-5.3-6.594-5.77-10.159-10.758-10.159-20.61,0-11.182,7.6-18.405,19.353-18.405,10.727,0,17.315,5.577,18.559,15.708a59.24,59.24,0,0,1,.537,7.352v1.944H349.2v-1.944a44.27,44.27,0,0,0-.332-5.378c-.268-2.138-.918-2.761-2.894-2.761-2.342,0-3.055.754-3.055,3.227,0,3.824,2.264,6.635,6.174,10.2l1.149,1.034c1.83,1.642,4.106,3.687,5.16,4.672,6.552,6.187,10.1,11.4,10.1,21.243C365.5,9086.594,357.972,9093.988,346.319,9093.988Zm-15.557-20.339,0,.444a52.747,52.747,0,0,0,.175,5.64c.673,8.567,8.738,10.365,15.385,10.365,9.575,0,15.292-5.59,15.292-14.947,0-8.528-2.86-12.731-8.872-18.409-1.019-.948-3.375-3.068-5.1-4.614l-1.161-1.041c-3.61-3.289-7.452-7.277-7.452-13.081,0-4.589,2.465-7.117,6.944-7.117,3.97,0,6.242,2.081,6.755,6.185.165,1.434.27,2.676.321,3.9h8.158c-.089-1.789-.264-3.846-.431-4.785l-.014-.1c-.681-5.625-3.785-12.336-14.7-12.336-9.682,0-15.464,5.428-15.464,14.517,0,8.467,2.844,12.444,8.817,17.669,1.692,1.453,4.836,4.285,6.021,5.352l.2.184c5.64,5.066,7.452,8.663,7.452,14.8,0,4.566-2.66,7.29-7.115,7.29-3.81,0-6.4-2.033-6.922-5.439-.1-.606-.16-2.471-.184-4.471Z" transform="translate(46.313 -9019.858)" fill="#0b292e"/></g></g></svg>