<svg xmlns="http://www.w3.org/2000/svg" width="332.931" height="313.628" viewBox="0 0 332.931 313.628">
  <path id="Path_3" data-name="Path 3" d="M827.442,1179.926a5.559,5.559,0,0,1,5.335,5.821c0,.051-.012.1-.013.146h6c0-.05-.013-.1-.013-.146a5.355,5.355,0,1,1,10.669,0c0,.051-.012.1-.013.146h6c0-.05-.013-.1-.013-.146a5.355,5.355,0,1,1,10.669,0c0,.051-.012.1-.013.146h6c0-.05-.013-.1-.013-.146a5.355,5.355,0,1,1,10.669,0c0,.051-.012.1-.013.146h6c0-.05-.013-.1-.013-.146a5.355,5.355,0,1,1,10.669,0c0,.051-.012.1-.013.146h6c0-.05-.013-.1-.013-.146a5.355,5.355,0,1,1,10.669,0c0,.051-.012.1-.013.146h6c0-.05-.013-.1-.013-.146a5.355,5.355,0,1,1,10.669,0c0,.051-.012.1-.013.146h6c0-.05-.013-.1-.013-.146a5.355,5.355,0,1,1,10.669,0c0,.051-.012.1-.013.146h6c0-.05-.013-.1-.013-.146a5.355,5.355,0,1,1,10.669,0c0,.051-.012.1-.013.146h6c0-.05-.013-.1-.013-.146a5.355,5.355,0,1,1,10.669,0c0,.051-.012.1-.013.146h6c0-.05-.013-.1-.013-.146a5.355,5.355,0,1,1,10.669,0c0,.051-.012.1-.013.146h6c0-.05-.013-.1-.013-.146a5.355,5.355,0,1,1,10.669,0c0,.051-.012.1-.013.146h6c0-.05-.013-.1-.013-.146a5.355,5.355,0,1,1,10.669,0c0,.051-.012.1-.013.146h6c0-.05-.013-.1-.013-.146a5.355,5.355,0,1,1,10.669,0c0,.051-.012.1-.013.146h6c0-.05-.013-.1-.013-.146a5.355,5.355,0,1,1,10.669,0c0,.051-.012.1-.013.146h6c0-.05-.013-.1-.013-.146a5.355,5.355,0,1,1,10.669,0c0,.051-.012.1-.013.146h6c0-.05-.013-.1-.013-.146a5.355,5.355,0,1,1,10.669,0c0,.051-.012.1-.013.146h6c0-.05-.014-.1-.014-.146a5.355,5.355,0,1,1,10.67,0c0,.051-.013.1-.013.146h6c0-.05-.014-.1-.014-.146a5.355,5.355,0,1,1,10.67,0c0,.051-.012.1-.013.146h6c0-.05-.014-.1-.014-.146a5.355,5.355,0,1,1,10.67,0c0,.051-.012.1-.013.146h6c0-.05-.013-.1-.013-.146a5.525,5.525,0,0,1,5.321-5.819v-302.4a5.454,5.454,0,0,1-5.268-5.258h-6.078a5.283,5.283,0,0,1-10.565,0h-6.076a5.283,5.283,0,0,1-10.566,0h-6.075a5.282,5.282,0,0,1-10.565,0h-6.076a5.282,5.282,0,0,1-10.565,0h-6.078a5.282,5.282,0,0,1-10.565,0H1065.7a5.282,5.282,0,0,1-10.565,0h-6.076a5.282,5.282,0,0,1-10.565,0h-6.076a5.282,5.282,0,0,1-10.565,0h-6.076a5.282,5.282,0,0,1-10.565,0h-6.078a5.282,5.282,0,0,1-10.565,0H982.5a5.282,5.282,0,0,1-10.565,0h-6.076a5.282,5.282,0,0,1-10.565,0h-6.076a5.282,5.282,0,0,1-10.565,0h-6.076a5.283,5.283,0,0,1-10.566,0h-6.075a5.283,5.283,0,0,1-10.566,0h-6.075a5.283,5.283,0,0,1-10.566,0H882.65a5.283,5.283,0,0,1-10.566,0h-6.076a5.283,5.283,0,0,1-10.566,0h-6.075a5.283,5.283,0,0,1-10.566,0h-6.075a5.494,5.494,0,0,1-5.284,5.259c-.04,0-.078-.01-.117-.012v302.424C827.365,1179.938,827.4,1179.926,827.442,1179.926Z" transform="translate(-827.325 -872.266)" fill="#fff"/>
</svg>
