<svg xmlns="http://www.w3.org/2000/svg" width="257.367" height="102" viewBox="0 0 257.367 102">
  <g id="Group_27" data-name="Group 27" transform="translate(-1406.426 -219.328)">
    <text id="DESIGN_AUDIT" data-name="DESIGN
AUDIT" transform="translate(1529.297 266.328)" fill="#0e363d" font-size="39" font-family="Oswald" font-weight="500" letter-spacing="0.04em"><tspan x="-59.631" y="0">DESIGN</tspan><tspan x="-48.847" y="44">AUDIT</tspan></text>
    <path id="Path_4" data-name="Path 4" d="M904.907,398.915c-.905-2.427-1.207-5.474-2.887-7.1-1.636-1.587-4.681-1.722-7.533-2.631,2.624-1.275,5.511-1.866,7-3.633,1.5-1.783,1.617-4.734,2.894-7.269a8.29,8.29,0,0,1,.787,1.987c.551,4.615,3.19,6.69,7.743,6.623a9.96,9.96,0,0,1,2.17.449l.113.755a24.247,24.247,0,0,1-2.617,1.025c-5.409,1.455-5.568,1.631-6.324,7.195-.118.881-.385,1.741-.585,2.611Z" transform="translate(560.471 -97.067)" fill="#e90044"/>
    <path id="Path_5" data-name="Path 5" d="M1020.549,394.161a14.1,14.1,0,0,1-2.205.909c-7.257,1.665-7.249,1.655-8.534,9.111a10.255,10.255,0,0,1-.784,1.987l-.739-.045a25.277,25.277,0,0,1-.942-3.7c-.451-4.317-2.818-6.468-7.1-6.649a5.185,5.185,0,0,1-1.745-.294c-.4-.169-.687-.632-1.025-.965.313-.271.584-.678.945-.788,1.2-.365,2.436-.64,3.664-.92a5.532,5.532,0,0,0,4.557-4.845c.226-1.315.423-2.639.746-3.931.1-.418.569-.746.868-1.115.321.353.807.655.932,1.066.365,1.2.611,2.444.857,3.68a5.364,5.364,0,0,0,4.935,4.662c1.847.264,3.669.7,5.5,1.052Z" transform="translate(597.657 -95.392)" fill="#e90044"/>
    <path id="Path_6" data-name="Path 6" d="M877.265,364.352c6.057-.152,8.283-3.861,9.267-8.893,1,2.193,1.507,4.934,3.148,6.417,1.571,1.422,4.324,1.538,7.506,2.519-3.122,1.12-5.983,1.354-7.481,2.9-1.548,1.6-1.773,4.485-2.875,7.663-1-2.778-1.259-5.488-2.736-7.029s-4.161-1.892-6.317-2.766Z" transform="translate(554.252 -105.306)" fill="#e90044"/>
    <g id="Group_9" data-name="Group 9" transform="translate(1603.324 241.878)">
      <text id="WOW_" data-name="WOW!" transform="translate(48.114 48.238) rotate(26.436)" fill="#e90044" font-size="15" font-family="Oswald" letter-spacing="0.12em"><tspan x="-49.55" y="0">WOW!</tspan></text>
      <line id="Line_4" data-name="Line 4" x2="1.655" y2="9.784" transform="translate(8.132 2.27)" fill="none" stroke="#e90044" stroke-miterlimit="10" stroke-width="1"/>
      <line id="Line_5" data-name="Line 5" x1="1.721" y2="16.543" transform="translate(25.665)" fill="none" stroke="#e90044" stroke-miterlimit="10" stroke-width="1"/>
      <line id="Line_6" data-name="Line 6" x1="8.595" y2="5.498" transform="translate(51.605 25.179)" fill="none" stroke="#e90044" stroke-miterlimit="10" stroke-width="1"/>
      <line id="Line_7" data-name="Line 7" x1="11.84" y2="18.399" transform="translate(37.222 3.571)" fill="none" stroke="#e90044" stroke-miterlimit="10" stroke-width="1"/>
    </g>
    <g id="Group_11" data-name="Group 11" transform="translate(1406.426 287.34)">
      <path id="Path_42" data-name="Path 42" d="M881.691,408.1c-11.109,2.446-22.86-8.047-22.86-8.047s6.26-14.457,17.369-16.9,22.86,8.048,22.86,8.048S892.8,405.655,881.691,408.1Z" transform="translate(-858.83 -382.781)" fill="#e90044"/>
      <circle id="Ellipse_1" data-name="Ellipse 1" cx="8.579" cy="8.579" r="8.579" transform="translate(11.549 4.326)" fill="#fff"/>
      <ellipse id="Ellipse_2" data-name="Ellipse 2" cx="4.056" cy="4.056" rx="4.056" ry="4.056" transform="translate(16.072 8.848)" fill="#0e363d"/>
    </g>
  </g>
</svg>
