<?xml version="1.0" encoding="utf-8"?>
<!-- Generator: Adobe Illustrator 24.1.0, SVG Export Plug-In . SVG Version: 6.00 Build 0)  -->
<svg version="1.1" id="Layer_1" xmlns="http://www.w3.org/2000/svg" xmlns:xlink="http://www.w3.org/1999/xlink" x="0px" y="0px"
	 viewBox="0 0 257.4 102" style="enable-background:new 0 0 257.4 102;" xml:space="preserve">
<style type="text/css">
	.st0{enable-background:new    ;}
	.st1{fill:#0E363D;}
	.st2{fill:#E90044;}
	.st3{font-family:'Oswald-Medium';}
	.st4{font-size:15px;}
	.st5{letter-spacing:1;}
	.st6{fill:none;stroke:#E90044;stroke-miterlimit:10;}
	.st7{fill:#FFFFFF;}
</style>
<g class="st0">
	<path class="st1" d="M65.6,15.4h7.4c7.7,0,10,3.1,10,9.8v11.5c0,6.9-2.4,10.3-9.8,10.3h-7.7V15.4z M73.1,43c3.9,0,4.1-2.1,4.1-6
		V24.8c0-3.8-0.4-5.3-4.2-5.3h-1.7V43H73.1z"/>
	<path class="st1" d="M88.9,15.4h13.3v4.1h-7.5v9.1h5.9v4h-5.9v10.5h7.6V47H88.9V15.4z"/>
	<path class="st1" d="M106.4,37.8l5-1c0.2,3.7,1.1,6.2,3.6,6.2c1.8,0,2.6-1.2,2.6-3c0-2.7-1.4-4.3-3.5-6l-4-3.5
		c-2.3-1.9-3.7-4.1-3.7-7.6c0-5,3.1-7.8,8.2-7.8c5.9,0,7.6,4,7.9,8.6l-5,0.9c-0.1-3-0.5-5.2-3.1-5.2c-1.7,0-2.7,1.3-2.7,3
		c0,2.1,0.9,3.3,2.6,4.8l3.9,3.5c2.6,2.2,4.7,5,4.7,9.2c0,4.6-3.2,7.8-7.9,7.8C109.3,47.4,106.6,44.1,106.4,37.8z"/>
	<path class="st1" d="M128.1,15.4h5.7V47h-5.7V15.4z"/>
	<path class="st1" d="M139.8,36.6V26c0-6.8,2.1-10.9,9-10.9c6.5,0,8.7,3.4,8.7,9.2v1.6H152v-1.8c0-3-0.3-4.8-3.2-4.8
		c-3,0-3.3,2.5-3.3,5.3v13.2c0,3.3,0.6,5.3,3.4,5.3c2.8,0,3.5-2.2,3.5-5.6v-3h-3.4V31h8.6v16h-3.7l-0.4-3.1c-0.9,2-2.4,3.5-5.3,3.5
		C141.9,47.4,139.8,43.3,139.8,36.6z"/>
	<path class="st1" d="M163.6,15.4h4l7.7,18v-18h4.8V47h-3.8l-7.7-18.9V47h-4.9V15.4z"/>
</g>
<g class="st0">
	<path class="st1" d="M81.1,59.4h6.2L93.6,91h-5.3L87,83.7h-5.5L80.2,91h-5.4L81.1,59.4z M86.4,80l-2.1-13.3L82.1,80H86.4z"/>
	<path class="st1" d="M97.9,80.8V59.4h5.6v22c0,3,0.4,5.7,3.3,5.7c3,0,3.3-2.7,3.3-5.7v-22h5.6v21.4c0,6.6-1.8,10.6-8.9,10.6
		C99.7,91.4,97.9,87.4,97.9,80.8z"/>
	<path class="st1" d="M121.8,59.4h7.4c7.7,0,10,3.1,10,9.8v11.5c0,6.9-2.4,10.3-9.8,10.3h-7.7V59.4z M129.3,87c3.9,0,4.1-2.1,4.1-6
		V68.8c0-3.8-0.4-5.3-4.2-5.3h-1.7V87H129.3z"/>
	<path class="st1" d="M145.2,59.4h5.7V91h-5.7V59.4z"/>
	<path class="st1" d="M160.5,63.7h-5v-4.3h15.7v4.3h-4.9V91h-5.8V63.7z"/>
</g>
<path id="Path_4" class="st2" d="M59,82.5c-0.9-2.4-1.2-5.5-2.9-7.1c-1.6-1.6-4.7-1.7-7.5-2.6c2.6-1.3,5.5-1.9,7-3.6
	c1.5-1.8,1.6-4.7,2.9-7.3c0.3,0.6,0.6,1.3,0.8,2c0.6,4.6,3.2,6.7,7.7,6.6c0.7,0.1,1.5,0.2,2.2,0.4l0.1,0.8c-0.9,0.4-1.7,0.7-2.6,1
	c-5.4,1.5-5.6,1.6-6.3,7.2c-0.1,0.9-0.4,1.7-0.6,2.6L59,82.5z"/>
<path id="Path_5" class="st2" d="M211.8,79.4c-0.7,0.4-1.4,0.7-2.2,0.9c-7.3,1.7-7.2,1.7-8.5,9.1c-0.2,0.7-0.5,1.4-0.8,2l-0.7,0
	c-0.4-1.2-0.7-2.4-0.9-3.7c-0.5-4.3-2.8-6.5-7.1-6.6c-0.6,0-1.2-0.1-1.7-0.3c-0.4-0.2-0.7-0.6-1-1c0.3-0.3,0.6-0.7,0.9-0.8
	c1.2-0.4,2.4-0.6,3.7-0.9c2.4-0.4,4.3-2.4,4.6-4.8c0.2-1.3,0.4-2.6,0.7-3.9c0.1-0.4,0.6-0.7,0.9-1.1c0.3,0.4,0.8,0.7,0.9,1.1
	c0.4,1.2,0.6,2.4,0.9,3.7c0.3,2.5,2.4,4.5,4.9,4.7c1.8,0.3,3.7,0.7,5.5,1.1L211.8,79.4z"/>
<path id="Path_6" class="st2" d="M25.1,39.7c6.1-0.2,8.3-3.9,9.3-8.9c1,2.2,1.5,4.9,3.1,6.4c1.6,1.4,4.3,1.5,7.5,2.5
	c-3.1,1.1-6,1.4-7.5,2.9c-1.5,1.6-1.8,4.5-2.9,7.7c-1-2.8-1.3-5.5-2.7-7s-4.2-1.9-6.3-2.8L25.1,39.7z"/>
<g id="Group_9" transform="translate(1603.324 241.878)">
	<text transform="matrix(0.8954 0.4452 -0.4452 0.8954 -1402.6805 -193.1495)" class="st2 st3 st4 st5">WOW!</text>
	<line id="Line_4" class="st6" x1="-1398.3" y1="-217.1" x2="-1396.6" y2="-207.3"/>
	<line id="Line_5" class="st6" x1="-1379" y1="-219.3" x2="-1380.8" y2="-202.8"/>
	<line id="Line_6" class="st6" x1="-1346.2" y1="-194.1" x2="-1354.8" y2="-188.7"/>
	<line id="Line_7" class="st6" x1="-1357.4" y1="-215.8" x2="-1369.2" y2="-197.4"/>
</g>
<g id="Group_11" transform="translate(1406.426 287.34)">
	<path id="Path_42" class="st2" d="M-1383.6-194c-11.1,2.4-22.9-8-22.9-8s6.3-14.5,17.4-16.9s22.9,8,22.9,8
		S-1372.5-196.5-1383.6-194z"/>
	<circle id="Ellipse_1" class="st7" cx="-1386.3" cy="-206.4" r="8.6"/>
	<ellipse id="Ellipse_2" class="st1" cx="-1386.3" cy="-206.4" rx="4.1" ry="4.1"/>
</g>
</svg>
