<svg xmlns="http://www.w3.org/2000/svg" width="272.039" height="223.974" viewBox="0 0 272.039 223.974">
  <g id="Group_29" data-name="Group 29" transform="translate(-1026.986 -1013.041)">
    <g id="Group_8" data-name="Group 8" transform="translate(1058.111 1013.041)">
      <g id="Group_5" data-name="Group 5" transform="translate(0 0)">
        <g id="Group_4" data-name="Group 4">
          <path id="Path_9" data-name="Path 9" d="M635.57,1024.38c-.548,4.586-3.235,6.5-7.606,6.051-.224-.029-.363-.121-.375-.349l-.157-4.066c0-.265.125-.4.349-.374,2.355.205,3.371-.354,3.544-1.808.163-1.38-.469-2.1-2.781-2.375-2.236-.267-3.073.086-4.047,1.9l-.779,1.459c-1.808,3.413-3.855,4.416-7.921,3.93-4.587-.549-6.783-3.043-6.244-7.554.531-4.438,3.092-6.249,7.1-5.958a.376.376,0,0,1,.369.385l.142,3.874c.011.229-.122.4-.346.375-1.832-.183-2.841.341-3,1.683-.157,1.306.589,2.037,2.3,2.242,1.9.228,2.548-.111,3.568-1.993l.78-1.459c1.756-3.306,3.781-4.425,8.07-3.912C633.726,1017.049,636.172,1019.347,635.57,1024.38Z" transform="translate(-609.473 -920.447)" fill="#e90044"/>
          <path id="Path_10" data-name="Path 10" d="M614.223,1003.348c-.186-.149-.287-.307-.209-.519l1.546-4.154a.41.41,0,0,1,.5-.255l25.144,3.5a.29.29,0,0,1,.249.413l-1.455,3.906a.387.387,0,0,1-.5.257l-4.617-.837-1.689,4.541,4.028,2.421a.384.384,0,0,1,.208.517l-1.452,3.908a.288.288,0,0,1-.457.151Zm16.748,1.624-8.871-1.577-.038.105,7.717,4.674Z" transform="translate(-608.044 -925.765)" fill="#e90044"/>
          <path id="Path_11" data-name="Path 11" d="M621.36,988.907a.356.356,0,0,1-.108-.519l6.126-9.321a.357.357,0,0,1,.521-.108l3.074,2.022a.352.352,0,0,1,.108.519l-3.506,5.335a.2.2,0,0,0,.064.312l4.644,3.052a.2.2,0,0,0,.312-.063l3.031-4.614a.357.357,0,0,1,.521-.108l3.074,2.022a.355.355,0,0,1,.108.52L636.3,992.57a.2.2,0,0,0,.064.313l4.832,3.176a.2.2,0,0,0,.312-.065l3.509-5.334a.351.351,0,0,1,.519-.108l3.076,2.021a.354.354,0,0,1,.107.52l-6.128,9.321a.352.352,0,0,1-.517.107Z" transform="translate(-605.765 -931.946)" fill="#e90044"/>
          <path id="Path_12" data-name="Path 12" d="M632.416,973.289a.352.352,0,0,1,.011-.531l4.661-4.471c2.544-2.445,4.972-2.9,7.651-1.463,1.313.718,2.672,1.806,6.39,5.681s4.752,5.276,5.414,6.619c1.325,2.736.77,5.141-1.776,7.585l-4.661,4.473a.354.354,0,0,1-.531-.012Zm18.062,11.393.869-.831a2.084,2.084,0,0,0,.558-2.724c-.329-.778-1-1.641-4.382-5.164s-4.213-4.23-4.978-4.59a2.082,2.082,0,0,0-2.744.448l-.865.833a.2.2,0,0,0-.008.317l11.231,11.7A.2.2,0,0,0,650.477,984.682Z" transform="translate(-602.245 -936.024)" fill="#e90044"/>
          <path id="Path_13" data-name="Path 13" d="M647.99,959.8a.354.354,0,0,1,.129-.515l9.56-5.747a.354.354,0,0,1,.515.129l1.9,3.155a.355.355,0,0,1-.128.515l-5.472,3.289a.2.2,0,0,0-.078.309l2.862,4.765a.2.2,0,0,0,.311.076l4.732-2.844a.355.355,0,0,1,.515.129l1.9,3.153a.356.356,0,0,1-.128.516l-4.732,2.844a.2.2,0,0,0-.078.309l2.978,4.957a.2.2,0,0,0,.311.078l5.473-3.289a.354.354,0,0,1,.513.128l1.9,3.155a.354.354,0,0,1-.129.515l-9.56,5.747a.358.358,0,0,1-.516-.128Z" transform="translate(-597.296 -939.992)" fill="#e90044"/>
          <path id="Path_14" data-name="Path 14" d="M678.084,972.631c-4.38,1.468-7.257-.145-8.724-4.287-.071-.214-.047-.38.153-.488l3.609-1.883c.238-.119.416-.059.488.154.822,2.221,1.76,2.9,3.151,2.432,1.319-.441,1.7-1.321.957-3.53-.715-2.137-1.393-2.742-3.45-2.845l-1.65-.082c-3.86-.172-5.646-1.6-6.944-5.48-1.468-4.382-.153-7.436,4.157-8.879,4.24-1.418,6.974.122,8.428,3.875a.376.376,0,0,1-.19.5l-3.442,1.788a.318.318,0,0,1-.488-.154c-.619-1.734-1.523-2.421-2.8-1.993-1.247.417-1.589,1.4-1.043,3.044.608,1.814,1.192,2.254,3.33,2.37l1.651.082c3.742.174,5.622,1.525,6.993,5.621C683.923,967.825,682.892,971.022,678.084,972.631Z" transform="translate(-591.86 -941.974)" fill="#e90044"/>
          <path id="Path_15" data-name="Path 15" d="M682.7,944.958a.357.357,0,0,1,.321-.424l4.132-.567a.354.354,0,0,1,.424.32l3.38,24.559a.357.357,0,0,1-.323.424l-4.129.569a.355.355,0,0,1-.424-.321Z" transform="translate(-586.287 -943.006)" fill="#e90044"/>
          <path id="Path_16" data-name="Path 16" d="M695.283,955.96c.353-6.562.523-7.6.961-8.786,1.088-2.724,3.378-4.105,6.791-3.922,4.125.223,6.407,2.563,6.523,6.707a.367.367,0,0,1-.324.435l-4.013.459c-.225.026-.37-.095-.392-.359-.014-1.842-.718-2.746-1.993-2.815a1.894,1.894,0,0,0-1.938,1.1c-.221.591-.274.889-.625,7.451-.353,6.525-.332,6.864-.175,7.437a2.159,2.159,0,0,0,3.9.209c.179-.516.273-.889.474-4.637a.2.2,0,0,0-.212-.237l-1.613-.087a.354.354,0,0,1-.354-.4l.178-3.3a.355.355,0,0,1,.394-.355l6.188.332a.355.355,0,0,1,.354.4l-.061,1.124c-.352,6.562-.521,7.606-1,8.746-1.089,2.762-3.381,4.143-6.718,3.964-3.413-.184-5.544-1.8-6.333-4.628C694.987,963.579,694.932,962.524,695.283,955.96Z" transform="translate(-582.378 -943.236)" fill="#e90044"/>
          <path id="Path_17" data-name="Path 17" d="M717.944,945.831a.357.357,0,0,1,.469-.253l4.5,1.344a.467.467,0,0,1,.4.51l-.525,16.58.179.054,4.591-15.367a.357.357,0,0,1,.469-.251l3.418,1.021a.358.358,0,0,1,.253.469l-7.1,23.751a.357.357,0,0,1-.467.253l-4.32-1.29a.468.468,0,0,1-.4-.511l.344-16.636-.179-.053-4.591,15.367a.357.357,0,0,1-.467.253l-3.419-1.023a.354.354,0,0,1-.252-.466Z" transform="translate(-577.379 -942.5)" fill="#e90044"/>
          <path id="Path_18" data-name="Path 18" d="M732.5,963.464c3.635-6.27,4.2-7.028,5.094-7.813,1.906-1.717,4.241-1.926,6.744-.477,3.055,1.77,3.779,4.491,2.348,7.784-.083.215-.241.34-.454.259l-2.028-.7a.35.35,0,0,1-.24-.486c.827-1.951.566-3.45-1.026-4.371a2.607,2.607,0,0,0-3.243.2c-.6.519-.951.968-4.531,7.141s-3.8,6.7-3.945,7.482a2.987,2.987,0,0,0,4.744,2.749c.553-.5.953-.969,3.569-5.484a.2.2,0,0,0-.08-.309l-2.178-1.263a.352.352,0,0,1-.137-.512l1-1.722a.357.357,0,0,1,.514-.138l4.582,2.657a.354.354,0,0,1,.136.514l-.546.943c-3.426,5.913-3.995,6.669-4.885,7.456-1.875,1.735-4.24,1.925-6.745.475s-3.481-3.58-2.939-6.087C728.488,970.606,728.865,969.737,732.5,963.464Z" transform="translate(-571.909 -939.76)" fill="#e90044"/>
          <path id="Path_19" data-name="Path 19" d="M746.425,988.892a.38.38,0,0,1-.124-.473l4.92-9.985a9.881,9.881,0,0,1-.8-.689L749.3,976.7a.2.2,0,0,0-.32.012l-7,7.538a.353.353,0,0,1-.528.02l-1.68-1.559a.354.354,0,0,1-.018-.531l16.866-18.155a.352.352,0,0,1,.531-.018l3.273,3.04c3.3,3.066,3.733,6.132.053,10.093-2.326,2.5-4.557,3.25-6.7,2.637l-5.078,10.708c-.074.187-.257.275-.394.146Zm11.82-13.825c2.352-2.531,2.266-4.095.284-5.936l-1.181-1.1a.2.2,0,0,0-.319.012l-5.878,6.326a.2.2,0,0,0,.013.319l1.18,1.1C754.271,977.578,755.867,977.625,758.245,975.068Z" transform="translate(-568.257 -936.695)" fill="#e90044"/>
          <path id="Path_20" data-name="Path 20" d="M752.651,990.041c.719-.947,1.431-1.568,7.418-5.654s6.825-4.52,7.968-4.847c2.461-.724,4.657.1,6.286,2.484s1.614,4.762.024,6.76c-.72.945-1.433,1.567-7.419,5.652s-6.826,4.523-7.967,4.848c-2.44.756-4.658-.1-6.287-2.484S751.08,992.068,752.651,990.041Zm5.392,6.367c.746-.237,1.255-.492,7.149-4.514s6.317-4.4,6.811-5.011a2.614,2.614,0,0,0-.037-3.25,2.564,2.564,0,0,0-2.991-1.186c-.769.207-1.276.461-7.172,4.484s-6.313,4.4-6.787,5.041a2.566,2.566,0,0,0,.014,3.218A2.609,2.609,0,0,0,758.043,996.409Z" transform="translate(-564.513 -931.82)" fill="#e90044"/>
          <path id="Path_21" data-name="Path 21" d="M763.641,1001.743l17.588-6.879a.355.355,0,0,1,.487.213l.833,2.133a.354.354,0,0,1-.212.486l-17.939,7.018c-2.063.806-2.737,2.278-2.08,3.958s2.151,2.3,4.215,1.5l17.939-7.016a.355.355,0,0,1,.486.215l.835,2.132a.357.357,0,0,1-.213.487l-17.59,6.88c-4.09,1.6-7,.24-8.328-3.153S759.549,1003.344,763.641,1001.743Z" transform="translate(-562.08 -926.898)" fill="#e90044"/>
          <path id="Path_22" data-name="Path 22" d="M763.125,1017.931a.355.355,0,0,1,.316-.427l24.515-3.641a.359.359,0,0,1,.428.317l.656,4.419c.662,4.458-.99,7.132-6.564,7.96-5.459.81-7.935-1.29-8.591-5.709l-.233-1.562a.2.2,0,0,0-.254-.188l-9.51,1.411a.353.353,0,0,1-.425-.317Zm18.9,5.621c3.568-.531,4.632-1.791,4.225-4.539l-.23-1.559a.2.2,0,0,0-.257-.19l-9.137,1.356a.2.2,0,0,0-.19.255l.232,1.56C777.078,1023.186,778.427,1024.087,782.028,1023.552Z" transform="translate(-560.821 -920.873)" fill="#e90044"/>
        </g>
      </g>
      <g id="Group_7" data-name="Group 7" transform="translate(8.134 130.942)">
        <g id="Group_6" data-name="Group 6">
          <path id="Path_23" data-name="Path 23" d="M615.962,1051.165a6.529,6.529,0,0,1,.549-5.346l2.534,1.564a4.349,4.349,0,0,0-.226,3.123c.3,1.263.862,1.766,1.612,1.588a1.108,1.108,0,0,0,.708-.438,1.5,1.5,0,0,0,.144-.943l-.153-1.622a4.52,4.52,0,0,1,.533-2.889,3.7,3.7,0,0,1,2.4-1.516c2.378-.562,4.539.818,5.24,3.781a5.946,5.946,0,0,1-.515,4.757l-2.487-1.534a3.313,3.313,0,0,0,.182-2.653c-.263-1.117-1.012-1.421-1.579-1.288a.884.884,0,0,0-.542.4,1.5,1.5,0,0,0-.172.987l.153,1.624a4.5,4.5,0,0,1-.473,2.816,3.891,3.891,0,0,1-2.623,1.645C618.6,1055.853,616.611,1053.908,615.962,1051.165Z" transform="translate(-615.651 -1042.092)" fill="#e90044"/>
          <path id="Path_24" data-name="Path 24" d="M618.528,1059.723l12.409-4.982,3.386,8.436-2.719,1.093-2.162-5.386-2.074.833,1.847,4.6-2.719,1.091-1.847-4.6-2.179.874,2.162,5.385-2.719,1.091Z" transform="translate(-614.74 -1038.87)" fill="#e90044"/>
          <path id="Path_25" data-name="Path 25" d="M627.042,1077.385l3.061-4.584-.567-.951-4.275,2.552-1.684-2.822,11.482-6.854,2.716,4.548a4.272,4.272,0,0,1-1.355,6.122,3.847,3.847,0,0,1-4.117-.079L629,1080.659Zm8.124-6.731-.955-1.6-2.321,1.386.953,1.6a1.355,1.355,0,1,0,2.323-1.386Z" transform="translate(-613.141 -1035.708)" fill="#e90044"/>
          <path id="Path_26" data-name="Path 26" d="M633.729,1087.45l-1.56-1.879,7.476-11.934,2.17,2.616-4.313,6.507,7.167-3.068,2.183,2.632Z" transform="translate(-610.421 -1032.887)" fill="#e90044"/>
          <path id="Path_27" data-name="Path 27" d="M638.823,1092.33l9.177-9.738,2.394,2.255-9.176,9.739Z" transform="translate(-608.314 -1030.051)" fill="#e90044"/>
          <path id="Path_28" data-name="Path 28" d="M648.194,1100.443a4.979,4.979,0,0,1-2.108-3.41c-.3-1.968.855-3.448,2.043-5.068s2.253-3.168,4.221-3.471a4.983,4.983,0,0,1,3.885.988,4.837,4.837,0,0,1,1.51,6.511l-2.7-1.975a1.654,1.654,0,0,0-.532-2.161,1.6,1.6,0,0,0-1.379-.313c-.477.14-.92.4-2.363,2.363s-1.555,2.47-1.546,2.965a1.6,1.6,0,0,0,.711,1.22,1.655,1.655,0,0,0,2.22-.141l2.7,1.978A4.836,4.836,0,0,1,648.194,1100.443Z" transform="translate(-606.03 -1028.203)" fill="#e90044"/>
          <path id="Path_29" data-name="Path 29" d="M655.2,1105.273l6.217-11.848,8.054,4.226-1.361,2.595-5.142-2.7-1.04,1.98,4.394,2.305-1.363,2.6-4.394-2.307-1.091,2.082,5.143,2.7-1.363,2.6Z" transform="translate(-603.129 -1026.621)" fill="#e90044"/>
          <path id="Path_30" data-name="Path 30" d="M683.964,1115.973l-2.618-.6-.633-6.9-3.576,5.941-2.6-.6-.6-13.85,3.348.766.128,7.272,3.68-6.4,2.269.521.529,7.363,3.277-6.491,3.348.766Z" transform="translate(-597.195 -1024.551)" fill="#e90044"/>
          <path id="Path_31" data-name="Path 31" d="M689.1,1116.281l.97-13.342,3.279.241-.97,13.339Z" transform="translate(-592.394 -1023.608)" fill="#e90044"/>
          <path id="Path_32" data-name="Path 32" d="M702.863,1106.047l.5,10.428-3.282.158-.5-10.428-3.282.159-.142-2.928,9.849-.475.141,2.927Z" transform="translate(-590.16 -1023.601)" fill="#e90044"/>
          <path id="Path_33" data-name="Path 33" d="M716.627,1114.731l-1.06-5.19-3.423.7,1.06,5.188-3.22.658-2.674-13.1,3.219-.657,1.028,5.042,3.425-.7-1.03-5.042,3.219-.657,2.675,13.1Z" transform="translate(-586.628 -1024.231)" fill="#e90044"/>
          <path id="Path_34" data-name="Path 34" d="M735.975,1107.293l-1.414-1.533-3.717,1.763.259,2.082-3.1,1.473-1.339-14.171,2.29-1.086,10.132,10Zm-5.92-6.382.444,3.739,2.107-1Z" transform="translate(-580.501 -1025.862)" fill="#e90044"/>
          <path id="Path_35" data-name="Path 35" d="M750.377,1098.522a6.52,6.52,0,0,1-5.06,1.8l.324-2.956a4.342,4.342,0,0,0,2.916-1.138c1.011-.81,1.224-1.535.743-2.135a1.124,1.124,0,0,0-.7-.45,1.481,1.481,0,0,0-.912.275l-1.4.833a4.53,4.53,0,0,1-2.835.758,3.708,3.708,0,0,1-2.4-1.52c-1.527-1.9-1.209-4.448,1.165-6.35a5.938,5.938,0,0,1,4.515-1.576l-.32,2.9a3.3,3.3,0,0,0-2.47.97c-.894.716-.849,1.523-.484,1.976a.869.869,0,0,0,.592.319,1.485,1.485,0,0,0,.965-.267l1.4-.835a4.51,4.51,0,0,1,2.744-.781,3.9,3.9,0,0,1,2.611,1.663C753.477,1094.133,752.575,1096.76,750.377,1098.522Z" transform="translate(-576.238 -1028.964)" fill="#e90044"/>
          <path id="Path_36" data-name="Path 36" d="M763.494,1086.785l-4.786-4.263,1.207,3.619-1.4,1.572-3.731-.782,4.785,4.262-2.187,2.455-9.993-8.9,2.149-2.412,6.408,1.679-2.406-6.17,2.149-2.415,9.992,8.9Z" transform="translate(-573.937 -1032.319)" fill="#e90044"/>
          <path id="Path_37" data-name="Path 37" d="M767.285,1079.918l-11.144-7.4,1.818-2.74,11.145,7.4Z" transform="translate(-571.166 -1034.109)" fill="#e90044"/>
          <path id="Path_38" data-name="Path 38" d="M771.8,1072.789l-11.951-6,1.475-2.939,9.332,4.687,2.521-5.018,2.619,1.314Z" transform="translate(-569.99 -1036.091)" fill="#e90044"/>
          <path id="Path_39" data-name="Path 39" d="M776.993,1062.765l-12.7-4.178,2.84-8.636,2.785.915-1.813,5.514,2.122.7,1.55-4.71,2.782.915-1.55,4.712,2.23.732,1.813-5.513,2.785.915Z" transform="translate(-568.585 -1040.387)" fill="#e90044"/>
          <path id="Path_40" data-name="Path 40" d="M776.764,1045.182l-.419,2.178-8.915-.874.728-3.8Zm3.863,3.48-2.969-.573.6-3.1,2.97.571Z" transform="translate(-567.591 -1042.687)" fill="#e90044"/>
        </g>
      </g>
      <path id="Path_41" data-name="Path 41" d="M716.569,972.546c-.358-.008-.708-.012-1.067-.015a76.63,76.63,0,0,0-2.326,153.238c.355.008.71.012,1.065.014a76.63,76.63,0,0,0,2.328-153.238ZM714.3,1118.792c-.319,0-.645-.008-.966-.016a69.637,69.637,0,0,1,2.115-139.254c.323,0,.645.008.969.016a69.637,69.637,0,0,1-2.117,139.254Zm-21.933-57.6c9.272.078,13.273-5.106,13.376-17.335.079-9.411-2.474-13.644-10.128-16.781l-3.377-1.352c-3.752-1.51-5.419-3.263-5.365-9.65.059-7.072,2.453-8.5,6.028-8.47,3.016.026,5.838,1.068,6.051,8.407a2.024,2.024,0,0,0,.761,1.648,2,2,0,0,0,1.737.326l2.342-.384.194-.046a2.083,2.083,0,0,0,1.5-2.188c-.19-9.469-4.432-14.305-12.612-14.375-8.449-.071-12.777,5.039-12.862,15.19-.079,9.277,2.4,13.256,10.215,16.37l3.38,1.351c3.62,1.443,5.331,3.365,5.272,10.392-.08,9.563-2.935,10.316-6.374,10.287-3.818-.032-6.284-1.675-6.785-9.654a1.989,1.989,0,0,0-.718-1.639,1.968,1.968,0,0,0-1.755-.339l-2.444.469a1.994,1.994,0,0,0-1.7,2.255C679.459,1055.9,683.922,1061.125,692.365,1061.2Zm54.53,11.477-64.438-.544a2.1,2.1,0,0,0-2.166,2.13l-.084,10.089c-.061,7.066,2.933,11.506,9.151,13.572,3.147,1.052,6.666,1.444,20.162,1.559.349,0,25.8.2,30.039-1.135,6.254-1.96,9.322-6.35,9.381-13.417l.086-10.089A2.1,2.1,0,0,0,746.9,1072.673Zm-4.645,11.7c-.034,4.058-1.446,6.175-4.852,7.3-2,.628-11.9.994-27.821.86-12.462-.105-15.607-.469-17.923-1.238-3.407-1.194-4.783-3.335-4.749-7.393l.041-4.8,55.345.467Zm7.323-55.277-10.586-.09a2.1,2.1,0,0,0-2.165,2.13l-.02,2.315a2.1,2.1,0,0,0,2.129,2.166l5.874.049c-.115,12.182-.39,13.621-.879,15.191-.972,2.7-3.011,4.051-6.067,4.025s-5.072-1.414-5.979-4.075c-.506-1.716-.743-3.256-.607-19.388s.4-17.667.919-19.331c.972-2.768,2.872-4.045,5.979-4.018,3.933.033,6.075,2.242,6.744,6.976a2.051,2.051,0,0,0,.893,1.443,2.011,2.011,0,0,0,1.656.234l2.4-.475.15-.041a2.137,2.137,0,0,0,1.49-2.491c-.991-7.893-5.708-12.276-13.28-12.34-6.387-.054-10.764,2.884-12.653,8.489-.936,2.724-1.188,5.193-1.326,21.5s.073,18.775.961,21.509c1.8,5.642,6.122,8.653,12.51,8.707s10.766-2.885,12.657-8.488c.935-2.725,1.185-5.006,1.307-19.593l.019-2.233A2.1,2.1,0,0,0,749.573,1029.1Z" transform="translate(-600.363 -933.96)" fill="#e90044"/>
    </g>
    <path id="Path_43" data-name="Path 43" d="M799,962.843a16.525,16.525,0,0,1-2.6,1.073c-8.566,1.966-8.554,1.953-10.072,10.754a12.124,12.124,0,0,1-.926,2.345l-.872-.053a29.736,29.736,0,0,1-1.113-4.366c-.531-5.1-3.326-7.634-8.38-7.85a6.076,6.076,0,0,1-2.059-.345c-.478-.2-.811-.747-1.21-1.139.369-.32.689-.8,1.115-.931,1.421-.432,2.876-.756,4.325-1.086a6.53,6.53,0,0,0,5.378-5.718c.266-1.552.5-3.116.881-4.641.123-.492.67-.879,1.023-1.314.379.415.955.77,1.1,1.256.431,1.421.72,2.886,1.012,4.344a6.33,6.33,0,0,0,5.825,5.5c2.179.312,4.33.822,6.494,1.242Z" transform="translate(500.026 71.812)" fill="#e90044"/>
    <path id="Path_44" data-name="Path 44" d="M598.251,959.631c5.858-.149,8.013-3.737,8.965-8.6.969,2.12,1.456,4.771,3.044,6.208,1.521,1.375,4.183,1.487,7.261,2.437-3.02,1.084-5.787,1.31-7.235,2.808-1.5,1.552-1.717,4.34-2.781,7.414-.969-2.689-1.218-5.309-2.646-6.8s-4.025-1.83-6.111-2.675Z" transform="translate(445.085 72.273)" fill="#e90044"/>
    <path id="Path_1" data-name="Path 1" d="M621.4,1113.874c-.874-2.348-1.168-5.3-2.791-6.872-1.583-1.535-4.528-1.667-7.288-2.545,2.537-1.235,5.33-1.805,6.771-3.516s1.564-4.579,2.8-7.031a8.033,8.033,0,0,1,.761,1.921c.533,4.465,3.086,6.473,7.49,6.407a9.707,9.707,0,0,1,2.1.436l.109.731a23.87,23.87,0,0,1-2.532.991c-5.231,1.407-5.385,1.577-6.116,6.96-.116.852-.374,1.684-.566,2.525Z" transform="translate(449.223 117.516)" fill="#e90044"/>
    <path id="Path_2" data-name="Path 2" d="M585.833,1076.522c7.6-.194,10.4-4.848,11.633-11.163,1.256,2.75,1.889,6.192,3.95,8.055,1.972,1.784,5.427,1.929,9.421,3.161-3.918,1.406-7.508,1.7-9.386,3.646-1.945,2.012-2.228,5.629-3.609,9.618-1.256-3.488-1.58-6.887-3.434-8.823s-5.222-2.374-7.928-3.472Z" transform="translate(441.153 108.475)" fill="#e90044"/>
  </g>
</svg>
