<svg xmlns="http://www.w3.org/2000/svg" width="874.332" height="296.882" viewBox="0 0 874.332 296.882">
  <g id="Group_51" data-name="Group 51" transform="translate(-339.651 -25.907)">
    <rect id="Rectangle_3" data-name="Rectangle 3" width="874.332" height="152.558" transform="translate(339.651 98.254)" fill="#fff"/>
    <g id="Group_2" data-name="Group 2" transform="translate(408.522 25.907)">
      <g id="Group_1" data-name="Group 1">
        <path id="Path_7" data-name="Path 7" d="M152.2,185.907a11.754,11.754,0,0,1,.961,1.5,196.09,196.09,0,0,1,13.949,41.939c1.527,7.6,2.928,15.244,4.012,22.922.8,5.654,1.167,11.386,1.4,17.1.309,7.436.471,14.887.377,22.328-.1,7.945-.554,15.885-.912,23.825-.049,1.08.261,1.576,1.319,1.58,1.908,0,3.817-.005,5.725,0,1.338,0,1.562-.857,1.49-1.924-.266-4-.561-7.991-.818-11.989-.373-5.824-.668-11.654-1.1-17.475-.524-7.1-1.174-14.188-1.729-21.284-.45-5.767-1.034-11.533-1.211-17.309-.3-9.667-.556-19.345-.384-29.011.133-7.488.407-15.026,2.475-22.326a11.42,11.42,0,0,1,1.035-2.858,3.032,3.032,0,0,1,1.82-1.407,65.625,65.625,0,0,1,7.031-.453c2.055-.038,3.588.852,4.055,3.01.914,4.216,1.964,8.413,2.646,12.669a185.815,185.815,0,0,1,1.876,35.008c-.342,11.563-.945,23.119-1.435,34.678-.263,6.226-.541,12.453-.791,18.679-.262,6.544-.474,13.09-.768,19.634-.071,1.581.375,2.362,2.1,2.355q18.132-.061,36.266-.018a2.384,2.384,0,0,0,2.586-1.763c1.055-3.136,2.188-6.247,3.2-9.4a2.808,2.808,0,0,1,3.022-2.266q9.535-.059,19.069-.349c5.651-.166,11.3-.46,16.949-.687a9.638,9.638,0,0,1,2.282.024,5.542,5.542,0,0,1,1.525.866c-.438.4-.827,1.056-1.322,1.149-2.246.425-4.523.678-6.786,1.014Q261.566,307.24,251,308.829c-1.04.158-2.047.45-2.029,1.824.018,1.343,1.026,1.492,1.995,1.539,5.011.25,10.024.506,15.039.67,3.115.1,6.241-.059,9.348.124.964.057,1.883.86,2.823,1.321a9.459,9.459,0,0,1-2.7,1.257c-6.122.694-12.259,1.265-18.394,1.854-2.15.207-4.308.33-6.459.52-1.148.1-2.136.694-1.885,1.889a2.755,2.755,0,0,0,1.725,1.808,59.1,59.1,0,0,0,7.19.737c5.964.327,11.934.562,17.9.866a19.744,19.744,0,0,1,3.2.433c.35.076.616.535.922.819-.329.328-.62.881-.994.945a40.2,40.2,0,0,1-4.357.471c-7.167.427-14.334.819-21.5,1.238a4.419,4.419,0,0,0-1.681.284,11.558,11.558,0,0,0-1.766,1.317c.521.552.976,1.488,1.576,1.593,3.689.649,7.407,1.14,11.124,1.625,5.231.683,10.473,1.286,15.7,2.013.624.086,1.17.732,1.752,1.119-.557.338-1.1.931-1.673.97-2.09.145-4.194.147-6.291.126-9.6-.093-19.2-.24-28.8-.313-4.166-.033-4.251-.037-5.656-3.876-.9-2.45-1.851-4.881-2.689-7.351a2.34,2.34,0,0,0-2.539-1.8q-18.419.041-36.837,0c-1.66-.005-2.2.67-2.238,2.279-.212,8.328-.448,16.657-.791,24.981-.449,10.865-1.12,21.719-1.489,32.586-.371,10.935-.525,21.877-.694,32.817-.042,2.793.226,5.589.338,8.386a5.309,5.309,0,0,0,3.614,5.218c7.543,3.2,12.831,8.6,14.771,16.778a23.3,23.3,0,0,1,.265,5.314c0,7.589-2.679,14.262-6.878,20.463a33.526,33.526,0,0,1-11.717,10.4,5.29,5.29,0,0,1-5.271.021,32.51,32.51,0,0,1-14.774-14.114,37.269,37.269,0,0,1-4.446-17c-.275-9.856,4.359-16.944,12.958-21.331a7.414,7.414,0,0,0,4.494-7.34c.078-11.58.365-23.16.329-34.74-.024-7.947-.379-15.9-.715-23.839-.407-9.654-.956-19.3-1.425-28.952-.154-3.177-.3-6.357-.35-9.536-.028-1.909-1.047-2.373-2.7-2.3-1.448.061-2.9.055-4.353-.009-1.585-.07-2.589.479-2.719,2.18-.182,2.408-.431,4.814-.537,7.226a2.13,2.13,0,0,1-2.519,2.357c-1.526-.041-3.057.067-4.579-.022-1.779-.1-2.635.571-2.506,2.415.585,8.366.845,16.769,1.8,25.093,1.318,11.5,2.961,22.97,4.84,34.392,1.159,7.043,1.1,14.079.952,21.129a31.74,31.74,0,0,1-6.553,19.181c-1.136,1.475-2.009,1.514-3.164.036a6.908,6.908,0,0,1-1.156-1.964c-2.046-6.1-4.01-12.205-4.037-18.76q-.144-36-.39-72c-.041-6.3-.2-12.6-.319-18.893-.038-2.037-.486-2.311-2.59-2.208a64.9,64.9,0,0,1-7.049.033c-2.195-.132-2.375-.718-2.267-3.85.063-1.828,1.2-1.806,2.467-1.8,2.417.007,4.837-.065,7.252.022,1.659.061,2.255-.583,2.213-2.236q-.269-10.4-.394-20.8c-.071-6.494-.009-12.989-.068-19.484-.095-10.5-.24-21-.366-31.5s-.248-20.991-.394-31.488c-.111-7.826-.263-15.651-.383-23.477-.013-.8.071-1.6.109-2.4Z" transform="translate(-108.176 -185.907)" fill="#f1f1f2"/>
        <path id="Path_8" data-name="Path 8" d="M154.36,259.522c.307,8-3.055,14.346-8.839,19.6-1.834,1.667-3.721,3.286-5.427,5.077a4.281,4.281,0,0,0-1.14,2.653q-.071,23.676.024,47.352c.03,8.078.242,16.155.262,24.232.011,4.7-.223,9.394-.286,14.091-.021,1.518-.453,2.373-2.17,2.406-3.253.064-3.759-.138-3.971-2.178a16.573,16.573,0,0,1-.043-1.717q-.02-40.382-.037-80.766c0-.51-.028-1.02,0-1.527a6.211,6.211,0,0,0-3.455-6.2,27.3,27.3,0,0,1-11.866-13.755c-2.764-7.043-1.194-19.13,5.242-24.546a19.83,19.83,0,0,1,21.26-2.163,18.88,18.88,0,0,1,10.429,14.791A17.99,17.99,0,0,1,154.36,259.522Z" transform="translate(-116.107 -168.793)" fill="#f1f1f2"/>
      </g>
    </g>
    <g id="Group_3" data-name="Group 3" transform="translate(375.476 137.764)">
      <text id="MENU_OF_SERVICES" data-name="MENU OF SERVICES" transform="translate(0 61.872)" fill="#eabc4e" font-size="76" font-family="Helvetica" letter-spacing="0.05em"><tspan x="0" y="0">MENU OF SERVICES</tspan></text>
      <text id="MENU_OF_SERVICES-2" data-name="MENU OF SERVICES" transform="translate(4.338 57)" stroke="#0e363d" stroke-miterlimit="10" stroke-width="3" font-size="76" font-family="Helvetica" letter-spacing="0.05em" fill="none"><tspan x="0" y="0">MENU OF SERVICES</tspan></text>
    </g>
  </g>
</svg>
