<?xml version="1.0" encoding="utf-8"?>
<!-- Generator: Adobe Illustrator 24.1.0, SVG Export Plug-In . SVG Version: 6.00 Build 0)  -->
<svg version="1.1" id="Layer_1" xmlns="http://www.w3.org/2000/svg" xmlns:xlink="http://www.w3.org/1999/xlink" x="0px" y="0px"
	 viewBox="0 0 717.3 296.9" style="enable-background:new 0 0 717.3 296.9;" xml:space="preserve">
<style type="text/css">
	.st0{fill:#FFFFFF;}
	.st1{fill:#F1F1F2;}
	.st2{enable-background:new    ;}
	.st3{fill:#EABC4E;}
	.st4{fill:none;stroke:#0E363D;stroke-width:3;stroke-miterlimit:10;}
</style>
<g>
	<rect id="Rectangle_21" y="72.3" class="st0" width="717.3" height="152.6"/>
	<g id="Group_56" transform="translate(837.522 1957.907)">
		<g id="Group_1">
			<path id="Path_7" class="st1" d="M-721.5-1957.9c0.4,0.5,0.7,1,1,1.5c6.2,13.4,10.9,27.5,13.9,41.9c1.5,7.6,2.9,15.2,4,22.9
				c0.8,5.7,1.2,11.4,1.4,17.1c0.3,7.4,0.5,14.9,0.4,22.3c-0.1,7.9-0.6,15.9-0.9,23.8c0,1.1,0.3,1.6,1.3,1.6c1.9,0,3.8,0,5.7,0
				c1.3,0,1.6-0.9,1.5-1.9c-0.3-4-0.6-8-0.8-12c-0.4-5.8-0.7-11.7-1.1-17.5c-0.5-7.1-1.2-14.2-1.7-21.3c-0.5-5.8-1-11.5-1.2-17.3
				c-0.3-9.7-0.6-19.3-0.4-29c0.1-7.5,0.4-15,2.5-22.3c0.2-1,0.6-2,1-2.9c0.4-0.7,1.1-1.2,1.8-1.4c2.3-0.3,4.7-0.4,7-0.5
				c2.1,0,3.6,0.9,4.1,3c0.9,4.2,2,8.4,2.6,12.7c1.7,11.6,2.4,23.3,1.9,35c-0.3,11.6-0.9,23.1-1.4,34.7c-0.3,6.2-0.5,12.5-0.8,18.7
				c-0.3,6.5-0.5,13.1-0.8,19.6c-0.1,1.6,0.4,2.4,2.1,2.4c12.1,0,24.2,0,36.3,0c1.2,0.1,2.3-0.6,2.6-1.8c1.1-3.1,2.2-6.2,3.2-9.4
				c0.3-1.4,1.6-2.4,3-2.3c6.4,0,12.7-0.2,19.1-0.3c5.7-0.2,11.3-0.5,16.9-0.7c0.8-0.1,1.5-0.1,2.3,0c0.6,0.2,1.1,0.5,1.5,0.9
				c-0.4,0.4-0.8,1.1-1.3,1.1c-2.2,0.4-4.5,0.7-6.8,1c-7,1-14.1,2.1-21.1,3.2c-1,0.2-2,0.5-2,1.8c0,1.3,1,1.5,2,1.5
				c5,0.2,10,0.5,15,0.7c3.1,0.1,6.2-0.1,9.3,0.1c1,0.1,1.9,0.9,2.8,1.3c-0.8,0.6-1.7,1-2.7,1.3c-6.1,0.7-12.3,1.3-18.4,1.9
				c-2.1,0.2-4.3,0.3-6.5,0.5c-1.1,0.1-2.1,0.7-1.9,1.9c0.3,0.8,0.9,1.5,1.7,1.8c2.4,0.4,4.8,0.6,7.2,0.7c6,0.3,11.9,0.6,17.9,0.9
				c1.1,0.1,2.1,0.2,3.2,0.4c0.4,0.1,0.6,0.5,0.9,0.8c-0.3,0.3-0.6,0.9-1,0.9c-1.4,0.2-2.9,0.4-4.4,0.5c-7.2,0.4-14.3,0.8-21.5,1.2
				c-0.6,0-1.1,0.1-1.7,0.3c-0.6,0.4-1.2,0.8-1.8,1.3c0.5,0.6,1,1.5,1.6,1.6c3.7,0.6,7.4,1.1,11.1,1.6c5.2,0.7,10.5,1.3,15.7,2
				c0.6,0.1,1.2,0.7,1.8,1.1c-0.6,0.3-1.1,0.9-1.7,1c-2.1,0.1-4.2,0.1-6.3,0.1c-9.6-0.1-19.2-0.2-28.8-0.3c-4.2,0-4.3,0-5.7-3.9
				c-0.9-2.5-1.9-4.9-2.7-7.4c-0.3-1.2-1.4-1.9-2.5-1.8c-12.3,0-24.6,0-36.8,0c-1.7,0-2.2,0.7-2.2,2.3c-0.2,8.3-0.4,16.7-0.8,25
				c-0.4,10.9-1.1,21.7-1.5,32.6c-0.4,10.9-0.5,21.9-0.7,32.8c0,2.8,0.2,5.6,0.3,8.4c-0.1,2.3,1.4,4.5,3.6,5.2
				c7.5,3.2,12.8,8.6,14.8,16.8c0.3,1.8,0.4,3.5,0.3,5.3c0,7.6-2.7,14.3-6.9,20.5c-3,4.3-7,7.9-11.7,10.4c-1.6,0.9-3.6,1-5.3,0
				c-6.3-3-11.5-7.9-14.8-14.1c-2.8-5.2-4.3-11.1-4.4-17c-0.3-9.9,4.4-16.9,13-21.3c2.9-1.2,4.7-4.2,4.5-7.3
				c0.1-11.6,0.4-23.2,0.3-34.7c0-7.9-0.4-15.9-0.7-23.8c-0.4-9.7-1-19.3-1.4-29c-0.2-3.2-0.3-6.4-0.3-9.5c0-1.9-1-2.4-2.7-2.3
				c-1.4,0.1-2.9,0.1-4.4,0c-1.6-0.1-2.6,0.5-2.7,2.2c-0.2,2.4-0.4,4.8-0.5,7.2c0.1,1.2-0.7,2.2-1.8,2.4c-0.2,0-0.5,0-0.7,0
				c-1.5,0-3.1,0.1-4.6,0c-1.8-0.1-2.6,0.6-2.5,2.4c0.6,8.4,0.8,16.8,1.8,25.1c1.3,11.5,3,23,4.8,34.4c1.2,7,1.1,14.1,1,21.1
				c0,6.9-2.3,13.7-6.6,19.2c-1.1,1.5-2,1.5-3.2,0c-0.5-0.6-0.9-1.2-1.2-2c-2-6.1-4-12.2-4-18.8c-0.1-24-0.2-48-0.4-72
				c0-6.3-0.2-12.6-0.3-18.9c0-2-0.5-2.3-2.6-2.2c-2.3,0.1-4.7,0.1-7,0c-2.2-0.1-2.4-0.7-2.3-3.8c0.1-1.8,1.2-1.8,2.5-1.8
				c2.4,0,4.8-0.1,7.3,0c1.7,0.1,2.3-0.6,2.2-2.2c-0.2-6.9-0.3-13.9-0.4-20.8c-0.1-6.5,0-13-0.1-19.5c-0.1-10.5-0.2-21-0.4-31.5
				c-0.1-10.5-0.2-21-0.4-31.5c-0.1-7.8-0.3-15.7-0.4-23.5c0-0.8,0.1-1.6,0.1-2.4L-721.5-1957.9z"/>
			<path id="Path_8" class="st1" d="M-727.2-1867.2c0.3,8-3.1,14.3-8.8,19.6c-1.8,1.7-3.7,3.3-5.4,5.1c-0.7,0.7-1.1,1.7-1.1,2.7
				c0,15.8,0,31.6,0,47.4c0,8.1,0.2,16.2,0.3,24.2c0,4.7-0.2,9.4-0.3,14.1c0,1.5-0.5,2.4-2.2,2.4c-3.3,0.1-3.8-0.1-4-2.2
				c0-0.6-0.1-1.1,0-1.7c0-26.9,0-53.8,0-80.8c0-0.5,0-1,0-1.5c0.3-2.6-1.1-5.1-3.5-6.2c-5.4-3.1-9.6-7.9-11.9-13.8
				c-2.8-7-1.2-19.1,5.2-24.5c6.1-4.8,14.4-5.6,21.3-2.2c5.8,2.8,9.7,8.4,10.4,14.8C-727.2-1868.9-727.2-1868.1-727.2-1867.2z"/>
		</g>
	</g>
	<g class="st2">
		<path class="st3" d="M44.7,111.5h11.9l9,43.8l9.3-43.8h11.6l1.2,63.2h-8.6l-0.9-43.9l-9,43.9h-6.9l-9.1-44.1l-0.9,44.1h-8.7
			L44.7,111.5z"/>
		<path class="st3" d="M100.9,111.5h26.5v8.1h-15.1v18.2h11.9v8h-11.9v21h15.2v7.9h-26.7V111.5z"/>
		<path class="st3" d="M138.2,111.5h8l15.4,36v-36h9.5v63.2h-7.6L148,137v37.8h-9.8V111.5z"/>
		<path class="st3" d="M184.2,154.3v-42.7h11.2v44.1c0,6,0.7,11.4,6.6,11.4c5.9,0,6.6-5.4,6.6-11.4v-44.1h11.2v42.7
			c0,13.3-3.7,21.3-17.8,21.3C187.7,175.6,184.2,167.6,184.2,154.3z"/>
		<path class="st3" d="M254.5,154.9v-23.7c0-12.8,4.7-20.4,18.3-20.4c13.5,0,18.2,7.6,18.2,20.4v23.7c0,12.7-4.7,20.7-18.2,20.7
			C259.1,175.6,254.5,167.7,254.5,154.9z M279.2,157.6v-29.1c0-5.3-0.9-9.3-6.5-9.3s-6.6,4-6.6,9.3v29.1c0,5.2,0.9,9.4,6.6,9.4
			C278.4,167.1,279.2,162.9,279.2,157.6z"/>
		<path class="st3" d="M303.3,111.5h26v8h-14.5v18.4h11.9v8h-11.9v28.8h-11.5V111.5z"/>
		<path class="st3" d="M360.7,156.3l9.9-2c0.3,7.5,2.1,12.3,7.2,12.3c3.7,0,5.2-2.5,5.2-5.9c0-5.5-2.8-8.5-6.9-12.1l-8-6.9
			c-4.5-3.9-7.3-8.3-7.3-15.3c0-10,6.2-15.6,16.3-15.6c11.9,0,15.2,8,15.8,17.2l-9.9,1.7c-0.2-5.9-1.1-10.4-6.2-10.4
			c-3.4,0-5.3,2.6-5.3,5.9c0,4.3,1.8,6.6,5.1,9.5l7.9,6.9c5.1,4.4,9.4,10,9.4,18.3c0,9.1-6.4,15.5-15.8,15.5
			C366.7,175.6,361.2,168.9,360.7,156.3z"/>
		<path class="st3" d="M404.7,111.5h26.5v8.1h-15.1v18.2h11.9v8h-11.9v21h15.2v7.9h-26.7V111.5z"/>
		<path class="st3" d="M442,111.5h15.2c12.6,0,19.8,4.1,19.8,16.8c0,7.6-1.9,12.9-7.8,15.3l8.8,31.1h-11.5l-7.6-28.9h-5.5v28.9H442
			V111.5z M457.2,138.6c6.6,0,9-2.9,9-9.7c0-6.4-1.8-9.5-8.4-9.5h-4.3v19.2H457.2z"/>
		<path class="st3" d="M486.4,111.5h10.1l8.3,44.7l7.9-44.7h10.4l-12.7,63.2h-11.3L486.4,111.5z"/>
		<path class="st3" d="M533.8,111.5h11.4v63.2h-11.4V111.5z"/>
		<path class="st3" d="M557.8,154.5V132c0-12.9,4.1-21.1,18-21.1c12.9,0,17.1,7.2,17.1,18.2v5.3h-11.1v-5.5c0-5.3-0.1-9.6-5.9-9.6
			c-5.9,0-6.5,4.5-6.5,10.3v27.4c0,6.9,1.4,10.1,6.5,10.1c5.7,0,5.9-4.4,5.9-10.1v-5.7H593v5.1c0,11.2-3.7,19.2-17.1,19.2
			C562,175.6,557.8,166.9,557.8,154.5z"/>
		<path class="st3" d="M604.9,111.5h26.5v8.1h-15.1v18.2h11.9v8h-11.9v21h15.2v7.9h-26.7V111.5z"/>
		<path class="st3" d="M640.6,156.3l9.9-2c0.3,7.5,2.1,12.3,7.2,12.3c3.7,0,5.2-2.5,5.2-5.9c0-5.5-2.8-8.5-6.9-12.1l-8-6.9
			c-4.5-3.9-7.3-8.3-7.3-15.3c0-10,6.2-15.6,16.3-15.6c11.9,0,15.2,8,15.8,17.2l-9.9,1.7c-0.2-5.9-1.1-10.4-6.2-10.4
			c-3.4,0-5.3,2.6-5.3,5.9c0,4.3,1.8,6.6,5.1,9.5l7.9,6.9c5.1,4.4,9.4,10,9.4,18.3c0,9.1-6.4,15.5-15.8,15.5
			C646.5,175.6,641.1,168.9,640.6,156.3z"/>
	</g>
	<g class="st2">
		<path class="st4" d="M47.6,106.7h11.9l9,43.8l9.3-43.8h11.6l1.2,63.2H82l-0.9-43.9l-9,43.9h-6.9L56,125.8l-0.9,44.1h-8.7
			L47.6,106.7z"/>
		<path class="st4" d="M103.9,106.7h26.5v8.1h-15.1V133h11.9v8h-11.9v21h15.2v7.9h-26.7V106.7z"/>
		<path class="st4" d="M141.1,106.7h8l15.4,36v-36h9.5v63.2h-7.6L151,132.1v37.8h-9.8V106.7z"/>
		<path class="st4" d="M187.1,149.4v-42.7h11.2v44.1c0,6,0.7,11.4,6.6,11.4c5.9,0,6.6-5.4,6.6-11.4v-44.1h11.2v42.7
			c0,13.3-3.7,21.3-17.8,21.3C190.7,170.7,187.1,162.7,187.1,149.4z"/>
		<path class="st4" d="M257.4,150v-23.7c0-12.8,4.7-20.4,18.3-20.4c13.5,0,18.2,7.6,18.2,20.4V150c0,12.7-4.7,20.7-18.2,20.7
			C262,170.7,257.4,162.8,257.4,150z M282.2,152.8v-29.1c0-5.3-0.9-9.3-6.5-9.3s-6.6,4-6.6,9.3v29.1c0,5.2,0.9,9.4,6.6,9.4
			C281.3,162.2,282.2,158,282.2,152.8z"/>
		<path class="st4" d="M306.3,106.7h26v8h-14.5V133h11.9v8h-11.9v28.8h-11.5V106.7z"/>
		<path class="st4" d="M363.7,151.4l9.9-2c0.3,7.5,2.1,12.3,7.2,12.3c3.7,0,5.2-2.5,5.2-5.9c0-5.5-2.8-8.5-6.9-12.1l-8-6.9
			c-4.5-3.9-7.3-8.3-7.3-15.3c0-10,6.2-15.6,16.3-15.6c11.9,0,15.2,8,15.8,17.2l-9.9,1.7c-0.2-5.9-1.1-10.4-6.2-10.4
			c-3.4,0-5.3,2.6-5.3,5.9c0,4.3,1.8,6.6,5.1,9.5l7.9,6.9c5.1,4.4,9.4,10,9.4,18.3c0,9.1-6.4,15.5-15.8,15.5
			C369.6,170.7,364.1,164,363.7,151.4z"/>
		<path class="st4" d="M407.7,106.7h26.5v8.1h-15.1V133H431v8h-11.9v21h15.2v7.9h-26.7V106.7z"/>
		<path class="st4" d="M444.9,106.7h15.2c12.6,0,19.8,4.1,19.8,16.8c0,7.6-1.9,12.9-7.8,15.3l8.8,31.1h-11.5l-7.6-28.9h-5.5v28.9
			h-11.5V106.7z M460.1,133.7c6.6,0,9-2.9,9-9.7c0-6.4-1.8-9.5-8.4-9.5h-4.3v19.2H460.1z"/>
		<path class="st4" d="M489.3,106.7h10.1l8.3,44.7l7.9-44.7h10.4l-12.7,63.2H502L489.3,106.7z"/>
		<path class="st4" d="M536.8,106.7h11.4v63.2h-11.4V106.7z"/>
		<path class="st4" d="M560.8,149.7v-22.5c0-12.9,4.1-21.1,18-21.1c12.9,0,17.1,7.2,17.1,18.2v5.3h-11.1V124c0-5.3-0.1-9.6-5.9-9.6
			c-5.9,0-6.5,4.5-6.5,10.3v27.4c0,6.9,1.4,10.1,6.5,10.1c5.7,0,5.9-4.4,5.9-10.1v-5.7h11.1v5.1c0,11.2-3.7,19.2-17.1,19.2
			C564.9,170.7,560.8,162,560.8,149.7z"/>
		<path class="st4" d="M607.8,106.7h26.5v8.1h-15.1V133h11.9v8h-11.9v21h15.2v7.9h-26.7V106.7z"/>
		<path class="st4" d="M643.5,151.4l9.9-2c0.3,7.5,2.1,12.3,7.2,12.3c3.7,0,5.2-2.5,5.2-5.9c0-5.5-2.8-8.5-6.9-12.1l-8-6.9
			c-4.5-3.9-7.3-8.3-7.3-15.3c0-10,6.2-15.6,16.3-15.6c11.9,0,15.2,8,15.8,17.2l-9.9,1.7c-0.2-5.9-1.1-10.4-6.2-10.4
			c-3.4,0-5.3,2.6-5.3,5.9c0,4.3,1.8,6.6,5.1,9.5l7.9,6.9c5.1,4.4,9.4,10,9.4,18.3c0,9.1-6.4,15.5-15.8,15.5
			C649.5,170.7,644,164,643.5,151.4z"/>
	</g>
</g>
</svg>
