<svg xmlns="http://www.w3.org/2000/svg" width="221.641" height="46.055" viewBox="0 0 221.641 46.055">
  <g id="Group_52" data-name="Group 52" transform="translate(-1420.995 -164.459)">
    <rect id="Rectangle_5" data-name="Rectangle 5" width="221.641" height="46.055" transform="translate(1420.995 164.459)" fill="#fff"/>
    <path id="Path_87" data-name="Path 87" d="M23.144-.176a39.149,39.149,0,0,0,2.288-12.716c0-2.772-.616-6.248-1.144-10.912-.572-5.06-.528-6.732.528-9.9l-1.276-.484C22.4-31.9,20.46-29.04,20.5-25.168c.044,7.392,2.112,13.464,2.112,19.976a12.354,12.354,0,0,1-.792,4.8ZM2.112-2.816c.66-.088,2.112-.66,2.112-1.936a1.744,1.744,0,0,0-1.672-1.8C1.232-6.556.264-5.28.308-3.388a3.735,3.735,0,0,0,4,3.652c2.112,0,4.092-1.32,6.16-4.884,2.288-3.916,4.356-9.988,6.2-15.884,1.98-6.248,2.816-8.976,5.94-13.992l-1.32-.572A43.69,43.69,0,0,0,15.4-22.66c-.924,2.992-1.936,5.984-3.256,9.548A40.9,40.9,0,0,1,8.712-5.368C7.084-2.552,5.9-1.276,4.312-1.276a2.271,2.271,0,0,1-2.244-1.54ZM25.52.264a71.891,71.891,0,0,0,2.86-6.732c1.144-3.08,2.068-6.028,3.3-10.428,2.156-7.568,4.664-16.016,7.832-16.016.66,0,1.232.308,1.408,1.32A2.09,2.09,0,0,0,38.9-29.744a1.62,1.62,0,0,0,1.584,1.716c1.32,0,2.288-1.408,2.288-3.344a3.159,3.159,0,0,0-3.168-3.08c-5.016,0-7.128,7.832-9.856,17.116C28.072-11.4,26.444-5.06,23.98,0Zm18.744-4.62c-1.188,1.584-2.728,3.212-4.444,3.212A2.78,2.78,0,0,1,38.412-1.5L37.8.044a3.287,3.287,0,0,0,1.848.44c2.6,0,4.312-1.8,5.9-3.7ZM45.5-16.5c-1.188-.352-2.992-.22-5.368,1.936A13.889,13.889,0,0,0,35.42-4.444,4.953,4.953,0,0,0,36.784-.66l1.76-4.62a42.614,42.614,0,0,1,4.18-8.624c.88-1.144,1.54-1.276,2.2-1.144Zm.528,1.8a1.094,1.094,0,0,1,.308.88c0,1.848-2.508,3.74-5.06,5.06L40.26-6.6c5.236-2.332,7.788-4.84,7.788-7.172A2.559,2.559,0,0,0,46.64-16.1ZM70.268-7.612C68.64-3.74,66.176-.044,63.4-1.276L62.788.176c4.18,1.5,7.084-3.124,8.58-6.292ZM72.6-8.8a19.976,19.976,0,0,0,1.408-5.588c0-1.232-.4-2.156-1.32-2.156-2.2,0-2.508,4.048-2.464,5.412.088,2.42,1.32,4.224,4.18,6.072l.88-1.32A9.332,9.332,0,0,1,72.6-8.8Zm-4.884-7.26H64.152l-1.408,3.74C60.94-7.392,59.18-1.672,61.82-.132Zm-11.66,0L52.184-5.9C51.3-3.608,51.172-.264,53.24.264l6.2-16.324ZM59.18-3.916c-1.76,1.892-3.08,2.86-4.356,2.64L54.164.4C56.32.7,57.6.044,59.532-1.892ZM94.82.352a15.675,15.675,0,0,0,2.42.176,12.129,12.129,0,0,0,5.984-1.364c3.608-1.936,5.456-4.708,6.556-9.24,2.508-10.428,3.916-14.916,5.456-17.644a11.364,11.364,0,0,1,3.74-4.444c1.232-.132,4.532-.308,4.532-2.024a1.3,1.3,0,0,0-1.452-1.32c-2.156,0-5.544,2.86-7.48,5.28a36.727,36.727,0,0,0-5.72,10.912c-.792,2.42-1.452,5.544-3.124,10.736-.792,2.508-1.716,4.4-3.432,5.808A8.511,8.511,0,0,1,97.2-.88a13.155,13.155,0,0,1-1.98-.132Zm22.748-34.5c-7.128-.308-17.6,1.32-17.6,8.8,0,3.08,2.684,5.5,7.568,6.644l.528-1.54c-3.344-.924-5.544-2.244-4.972-6.116.7-4.576,6.2-6.072,12.144-6.16ZM91.256-4.092c.66-.088,2.024-.66,2.024-1.936A1.6,1.6,0,0,0,91.7-7.744c-1.232,0-2.244,1.276-2.2,3.08,0,2.9,2.156,4.268,4.488,4.84l.484-1.364C92.356-1.716,91.212-2.86,91.256-4.092Zm21.428-14.432a12.383,12.383,0,0,0,6.82-3.256l-1.1-1.276a10.818,10.818,0,0,1-5.192,2.42Zm12.54,2.464L124.7-14.3h3.52l.264-1.76Zm-2.156-6.028L117.348-5.94c-.836,2.288-1.012,5.632,1.056,6.16l8.052-22.308Zm.924,17.82c-1.672,1.98-2.728,3.124-4,2.9l-.66,1.716c2.156.308,4-.836,5.984-3.52ZM117.3-16.06l-.088,1.76h2.156l.572-1.76Zm21.164,11.7c-1.188,1.584-2.728,3.212-4.444,3.212a2.78,2.78,0,0,1-1.408-.352L132,.044a3.287,3.287,0,0,0,1.848.44c2.6,0,4.312-1.8,5.9-3.7ZM139.7-16.5c-1.188-.352-2.992-.22-5.368,1.936a13.889,13.889,0,0,0-4.708,10.12A4.953,4.953,0,0,0,130.988-.66l1.76-4.62a42.614,42.614,0,0,1,4.18-8.624c.88-1.144,1.54-1.276,2.2-1.144Zm.528,1.8a1.093,1.093,0,0,1,.308.88c0,1.848-2.508,3.74-5.06,5.06L134.464-6.6c5.236-2.332,7.788-4.84,7.788-7.172a2.559,2.559,0,0,0-1.408-2.332Zm11.7,3.476.836-4.752h-2.64L144.364,0h3.476Zm5.632-5.324a6.183,6.183,0,0,0-4.048,1.892l-.44,3.036c1.056-1.408,2.376-2.948,3.96-3.08Zm.4,1.892c.748,0,.484.836.264,1.408L153.384,0h3.3l4-10.56a10.284,10.284,0,0,0,.748-3.388,2.753,2.753,0,0,0-2.86-2.6Zm8.536-1.892a6.183,6.183,0,0,0-4.048,1.892l-.44,3.036c1.056-1.408,2.376-2.948,3.96-3.08Zm.4,1.892c.748,0,.484.836.264,1.408l-2.684,7.3c-.836,2.288-1.012,5.632,1.056,6.16l4.092-10.78a10.284,10.284,0,0,0,.748-3.388,2.753,2.753,0,0,0-2.86-2.6Zm4.224,10.384c-1.672,1.98-2.728,3.124-4,2.9l-.66,1.716c2.156.308,4-.836,5.984-3.52Zm12.54-4.664,6.82-16.544a5.181,5.181,0,0,0,.4-1.76c0-.352-.088-2.2-1.848-2.2-1.232,0-1.584,1.32-1.892,2.288l-5.1,17.82Zm-2.684,4.224c-1.1,0-2.42,1.364-2.42,3.3A1.6,1.6,0,0,0,180.136.308c1.628,0,2.6-1.628,2.6-3.124C182.732-4.136,182.028-4.708,180.972-4.708Z" transform="translate(1432.527 205.047)" fill="#e90044"/>
  </g>
</svg>
