<svg id="Layer_1" data-name="Layer 1" xmlns="http://www.w3.org/2000/svg" viewBox="0 0 20 20"><title>SD_icon</title><path d="M10,5.32A4.65,4.65,0,1,0,14.65,10,4.66,4.66,0,0,0,10,5.32Zm0,7.62a3,3,0,1,1,3-3A3,3,0,0,1,10,12.94Z"/><circle cx="14.83" cy="5.21" r="1.05"/><path d="M17.55,2.49A5.19,5.19,0,0,0,13.74,1H6.26A5,5,0,0,0,1,6.26V13.7a5.24,5.24,0,0,0,1.52,3.88A5.28,5.28,0,0,0,6.3,19h7.4a5.34,5.34,0,0,0,3.81-1.42A5.18,5.18,0,0,0,19,13.74V6.26A5.21,5.21,0,0,0,17.55,2.49Zm-.22,11.25a3.53,3.53,0,0,1-1,2.65,3.77,3.77,0,0,1-2.65.94H6.3a3.77,3.77,0,0,1-2.65-.94,3.67,3.67,0,0,1-1-2.69V6.26a3.64,3.64,0,0,1,1-2.65A3.72,3.72,0,0,1,6.3,2.67h7.47a3.63,3.63,0,0,1,2.65,1,3.72,3.72,0,0,1,1,2.61v7.48Z"/></svg>