{"asset":{"version":"2.0","generator":"VECTARY"},"nodes":[{"translation":[0.002072162852463947,-0.005156205186239084,-0.004522096969564549],"scale":[0.0013150220034197184,0.0006277230080123758,0.0013379897844833695],"rotation":[-0.7071045403851087,0.0017801591962582728,0.0017801591962582732,0.7071045403851088],"name":"G","mesh":0},{"translation":[0.000060115595743553796,-0.04165905374191271,0.000282973265965488],"scale":[0.0013988249069738488,0.0006277230080123758,0.0018635899760665287],"rotation":[-0.7071067811865475,0,0,0.7071067811865476],"name":"D - D - baked","mesh":1},{"translation":[-0.041359051859415505,-0.005156205186239083,-0.004221488120630608],"scale":[0.0013150220034197184,0.0006277230080123758,0.0013379897844833695],"rotation":[-0.7071045403851087,0.0017801591962582728,0.0017801591962582732,0.7071045403851088],"name":"S","mesh":2},{"translation":[-0.00007539841707628803,-0.00001478481970446044,0.005403793259274906],"scale":[0.0009133031091176447,0.0009133031091176437,0.000999999999999999],"rotation":[-0.9999984394162171,-7.947201924318748e-17,0.0017666819550448288,7.216449660063518e-16],"name":"Torus","mesh":3},{"translation":[0.0065079348680936846,0.08760857249853106,0.4030335703242398],"scale":[1,1,1],"rotation":[-0.11257054331564822,0.0741804605632782,0.008427774848597025,0.9908350542140407],"name":"Camera","camera":0}],"materials":[{"pbrMetallicRoughness":{"baseColorFactor":[0.8751375823652049,0.09868919754109445,0.18698850875884424,1],"metallicFactor":0,"roughnessFactor":1},"name":"Torus material","emissiveFactor":[0,0,0],"alphaMode":"OPAQUE","doubleSided":false}],"meshes":[{"primitives":[{"mode":4,"attributes":{"POSITION":1,"NORMAL":2,"TEXCOORD_0":3},"material":0,"indices":0}]},{"primitives":[{"mode":4,"attributes":{"POSITION":5,"NORMAL":6,"TEXCOORD_0":7},"material":0,"indices":4}]},{"primitives":[{"mode":4,"attributes":{"POSITION":9,"NORMAL":10,"TEXCOORD_0":11},"material":0,"indices":8}]},{"primitives":[{"mode":4,"attributes":{"POSITION":13,"NORMAL":14,"TEXCOORD_0":15},"material":0,"indices":12}]}],"accessors":[{"bufferView":0,"byteOffset":0,"componentType":5125,"count":1608,"type":"SCALAR"},{"bufferView":1,"byteOffset":0,"componentType":5126,"count":568,"max":[27.5,2.167624862901298e-15,35.400001525878906],"min":[3.1500000953674316,-15,-0.4000000059604645],"type":"VEC3"},{"bufferView":2,"byteOffset":0,"componentType":5126,"count":568,"type":"VEC3"},{"bufferView":3,"byteOffset":0,"componentType":5126,"count":568,"type":"VEC2"},{"bufferView":4,"byteOffset":0,"componentType":5125,"count":816,"type":"SCALAR"},{"bufferView":5,"byteOffset":0,"componentType":5126,"count":288,"max":[27.21375274658203,7.805059432983398,16.05299949645996],"min":[-27.21375274658203,-7.805059432983398,-3.552713678800501e-15],"type":"VEC3"},{"bufferView":6,"byteOffset":0,"componentType":5126,"count":288,"type":"VEC3"},{"bufferView":7,"byteOffset":0,"componentType":5126,"count":288,"type":"VEC2"},{"bufferView":8,"byteOffset":0,"componentType":5125,"count":2100,"type":"SCALAR"},{"bufferView":9,"byteOffset":0,"componentType":5126,"count":736,"max":[27,2.167624862901298e-15,35.400001525878906],"min":[2.3499999046325684,-15,-0.4000000059604645],"type":"VEC3"},{"bufferView":10,"byteOffset":0,"componentType":5126,"count":736,"type":"VEC3"},{"bufferView":11,"byteOffset":0,"componentType":5126,"count":736,"type":"VEC2"},{"bufferView":12,"byteOffset":0,"componentType":5125,"count":52140,"type":"SCALAR"},{"bufferView":13,"byteOffset":0,"componentType":5126,"count":8904,"max":[79.9918441772461,79.97603607177734,9.997961044311523],"min":[-79.9918441772461,-79.97603607177734,0.0020389556884765625],"type":"VEC3"},{"bufferView":14,"byteOffset":0,"componentType":5126,"count":8904,"type":"VEC3"},{"bufferView":15,"byteOffset":0,"componentType":5126,"count":8904,"type":"VEC2"}],"bufferViews":[{"buffer":0,"byteOffset":0,"byteLength":6432,"target":34963},{"buffer":0,"byteOffset":6432,"byteLength":6816,"target":34962},{"buffer":0,"byteOffset":13248,"byteLength":6816,"target":34962},{"buffer":0,"byteOffset":20064,"byteLength":4544,"target":34962},{"buffer":0,"byteOffset":24608,"byteLength":3264,"target":34963},{"buffer":0,"byteOffset":27872,"byteLength":3456,"target":34962},{"buffer":0,"byteOffset":31328,"byteLength":3456,"target":34962},{"buffer":0,"byteOffset":34784,"byteLength":2304,"target":34962},{"buffer":0,"byteOffset":37088,"byteLength":8400,"target":34963},{"buffer":0,"byteOffset":45488,"byteLength":8832,"target":34962},{"buffer":0,"byteOffset":54320,"byteLength":8832,"target":34962},{"buffer":0,"byteOffset":63152,"byteLength":5888,"target":34962},{"buffer":0,"byteOffset":69040,"byteLength":208560,"target":34963},{"buffer":0,"byteOffset":277600,"byteLength":106848,"target":34962},{"buffer":0,"byteOffset":384448,"byteLength":106848,"target":34962},{"buffer":0,"byteOffset":491296,"byteLength":71232,"target":34962}],"cameras":[{"name":"Camera","type":"perspective","extras":{"targetDistance":0.4496975789974728},"perspective":{"aspectRatio":1.6056118472330476,"yfov":0.6108652381980153,"zfar":37.05221322322629,"znear":0.002750095567646909}}],"scene":0,"scenes":[{"nodes":[0,1,2,3,4],"name":"sdg-coin-face"}],"extensionsUsed":["KHR_texture_transform"],"buffers":[{"byteLength":562528,"uri":"sdg-coin-face.bin"}]}