{"asset":{"version":"2.0","generator":"VECTARY"},"nodes":[{"translation":[0.01366225489099206,0.08784044535210757,0.002982153017299673],"scale":[0.0013150220034197184,0.00047961076465918796,0.0013379897844833695],"rotation":[-0.7071045403851087,0.0017801591962582728,0.0017801591962582732,0.7071045403851088],"name":"G","mesh":0},{"translation":[-0.02309842845918867,0.08187609747425756,0.0031672466761516207],"scale":[0.0013150220034197177,0.00047961076465918796,0.0016094168406233361],"rotation":[-0.5012571781533735,0.501257178153373,-0.49873965287484134,0.49873965287484184],"name":"D","mesh":1},{"translation":[-0.03800816948114858,0.08784044535210758,0.0032423186896939457],"scale":[0.0013150220034197184,0.00047961076465918796,0.0013379897844833695],"rotation":[-0.7071045403851087,0.0017801591962582728,0.0017801591962582732,0.7071045403851088],"name":"S","mesh":2},{"translation":[0.005634852455562259,0.09282432762601574,0.010501357208737084],"scale":[0.001,0.000999999999999999,0.000999999999999999],"rotation":[-0.9999984394162171,-7.958043946043603e-17,0.0017666819550448286,7.216449660063518e-16],"name":"Torus","mesh":3},{"translation":[0.016169047837006824,0.5506090397811091,-0.005389851759311398],"scale":[1,1,1],"rotation":[-0.5205829911458003,-0.4744027831280506,-0.44945829074390065,0.5494748343387736],"name":"Camera","camera":0}],"materials":[{"pbrMetallicRoughness":{"baseColorFactor":[0.8277257944550336,0.025371276904734584,0.09151835299891947,1],"metallicFactor":0,"roughnessFactor":0.2},"name":"3D Text material 1","emissiveFactor":[0,0,0],"alphaMode":"OPAQUE","doubleSided":false},{"pbrMetallicRoughness":{"baseColorFactor":[0.8277257944550336,0.025371276904734584,0.09151835299891947,1],"metallicFactor":0,"roughnessFactor":0.2},"name":"3D Text material 2","emissiveFactor":[0,0,0],"alphaMode":"OPAQUE","doubleSided":false},{"pbrMetallicRoughness":{"baseColorFactor":[0.8277257944550336,0.025371276904734584,0.09151835299891947,1],"metallicFactor":0,"roughnessFactor":0.2},"name":"3D Text material","emissiveFactor":[0,0,0],"alphaMode":"OPAQUE","doubleSided":false},{"pbrMetallicRoughness":{"baseColorFactor":[0.8277257944550336,0.025371276904734584,0.09151835299891947,1],"metallicFactor":0,"roughnessFactor":0.2},"name":"Torus material","emissiveFactor":[0,0,0],"alphaMode":"OPAQUE","doubleSided":false}],"meshes":[{"primitives":[{"mode":4,"attributes":{"POSITION":1,"NORMAL":2,"TEXCOORD_0":3},"material":0,"indices":0}]},{"primitives":[{"mode":4,"attributes":{"POSITION":5,"NORMAL":6,"TEXCOORD_0":7},"material":1,"indices":4}]},{"primitives":[{"mode":4,"attributes":{"POSITION":9,"NORMAL":10,"TEXCOORD_0":11},"material":2,"indices":8}]},{"primitives":[{"mode":4,"attributes":{"POSITION":13,"NORMAL":14,"TEXCOORD_0":15},"material":3,"indices":12}]}],"accessors":[{"bufferView":0,"byteOffset":0,"componentType":5125,"count":1608,"type":"SCALAR"},{"bufferView":1,"byteOffset":0,"componentType":5126,"count":568,"max":[27.049999237060547,2.167624862901298e-15,35.400001525878906],"min":[3.5999999046325684,-15,-0.4000000059604645],"type":"VEC3"},{"bufferView":2,"byteOffset":0,"componentType":5126,"count":568,"type":"VEC3"},{"bufferView":3,"byteOffset":0,"componentType":5126,"count":568,"type":"VEC2"},{"bufferView":4,"byteOffset":0,"componentType":5125,"count":816,"type":"SCALAR"},{"bufferView":5,"byteOffset":0,"componentType":5126,"count":288,"max":[27.799999237060547,2.143131846440256e-15,35],"min":[4.699999809265137,-15,0],"type":"VEC3"},{"bufferView":6,"byteOffset":0,"componentType":5126,"count":288,"type":"VEC3"},{"bufferView":7,"byteOffset":0,"componentType":5126,"count":288,"type":"VEC2"},{"bufferView":8,"byteOffset":0,"componentType":5125,"count":1980,"type":"SCALAR"},{"bufferView":9,"byteOffset":0,"componentType":5126,"count":696,"max":[26.5,2.167624862901298e-15,35.400001525878906],"min":[2.5999999046325684,-15,-0.4000000059604645],"type":"VEC3"},{"bufferView":10,"byteOffset":0,"componentType":5126,"count":696,"type":"VEC3"},{"bufferView":11,"byteOffset":0,"componentType":5126,"count":696,"type":"VEC2"},{"bufferView":12,"byteOffset":0,"componentType":5125,"count":52140,"type":"SCALAR"},{"bufferView":13,"byteOffset":0,"componentType":5126,"count":8904,"max":[79.9918441772461,79.97603607177734,9.997961044311523],"min":[-79.9918441772461,-79.97603607177734,0.0020389556884765625],"type":"VEC3"},{"bufferView":14,"byteOffset":0,"componentType":5126,"count":8904,"type":"VEC3"},{"bufferView":15,"byteOffset":0,"componentType":5126,"count":8904,"type":"VEC2"}],"bufferViews":[{"buffer":0,"byteOffset":0,"byteLength":6432,"target":34963},{"buffer":0,"byteOffset":6432,"byteLength":6816,"target":34962},{"buffer":0,"byteOffset":13248,"byteLength":6816,"target":34962},{"buffer":0,"byteOffset":20064,"byteLength":4544,"target":34962},{"buffer":0,"byteOffset":24608,"byteLength":3264,"target":34963},{"buffer":0,"byteOffset":27872,"byteLength":3456,"target":34962},{"buffer":0,"byteOffset":31328,"byteLength":3456,"target":34962},{"buffer":0,"byteOffset":34784,"byteLength":2304,"target":34962},{"buffer":0,"byteOffset":37088,"byteLength":7920,"target":34963},{"buffer":0,"byteOffset":45008,"byteLength":8352,"target":34962},{"buffer":0,"byteOffset":53360,"byteLength":8352,"target":34962},{"buffer":0,"byteOffset":61712,"byteLength":5568,"target":34962},{"buffer":0,"byteOffset":67280,"byteLength":208560,"target":34963},{"buffer":0,"byteOffset":275840,"byteLength":106848,"target":34962},{"buffer":0,"byteOffset":382688,"byteLength":106848,"target":34962},{"buffer":0,"byteOffset":489536,"byteLength":71232,"target":34962}],"cameras":[{"name":"Camera","type":"perspective","extras":{"targetDistance":0.5346792565943975},"perspective":{"aspectRatio":1.399783315276273,"yfov":0.6108652381980153,"zfar":40.28183993458057,"znear":0.003081557256443795}}],"scene":0,"scenes":[{"nodes":[0,1,2,3,4],"name":"sdg-coin-face"}],"extensionsUsed":["KHR_texture_transform"],"buffers":[{"byteLength":560768,"uri":"sdg-coin-face.bin"}]}