{"asset":{"version":"2.0","generator":"VECTARY"},"nodes":[{"translation":[0,0,0],"scale":[0.001,0.001,0.001],"rotation":[-0.7071067811865475,0,0,0.7071067811865476],"name":"SDG_logo_red","children":[1]},{"translation":[0,4.074502271555112,0.10511601399635806],"scale":[1.9955555521480486,1.9955555521480486,1],"rotation":[0.7071067811865475,0,0,0.7071067811865476],"name":"Layer_2","children":[2,3,4,5]},{"translation":[0,0,0],"scale":[1,1,1],"rotation":[0,0,0,1],"name":"Default StructuredGeometry Name","mesh":0},{"translation":[0,0,0.002],"scale":[1,1,1],"rotation":[0,0,0,1],"name":"Default StructuredGeometry Name","mesh":1},{"translation":[0,0,0.004],"scale":[1,1,1],"rotation":[0,0,0,1],"name":"Path","mesh":2},{"translation":[0,0,0.006],"scale":[1,1,1],"rotation":[0,0,0,1],"name":"Default StructuredGeometry Name","mesh":3},{"translation":[0.006876215232433246,0.1490115286671808,0.0010116153159986823],"scale":[1,1,1],"rotation":[-0.49999999999999994,0.5,0.5,0.5],"name":"Camera","camera":0}],"materials":[{"pbrMetallicRoughness":{"baseColorFactor":[0.7667436168621613,0.051122050056493396,0.1247409453870513,1],"metallicFactor":0,"roughnessFactor":1},"name":"","emissiveFactor":[0,0,0],"alphaMode":"OPAQUE","doubleSided":true},{"pbrMetallicRoughness":{"baseColorFactor":[0.7667436168621613,0.051122050056493396,0.1247409453870513,1],"metallicFactor":0,"roughnessFactor":1},"name":"","emissiveFactor":[0,0,0],"alphaMode":"OPAQUE","doubleSided":true},{"pbrMetallicRoughness":{"baseColorFactor":[0.7667436168621613,0.051122050056493396,0.1247409453870513,1],"metallicFactor":0,"roughnessFactor":1},"name":"","emissiveFactor":[0,0,0],"alphaMode":"OPAQUE","doubleSided":true},{"pbrMetallicRoughness":{"baseColorFactor":[0.7667436168621613,0.051122050056493396,0.1247409453870513,1],"metallicFactor":0,"roughnessFactor":1},"name":"","emissiveFactor":[0,0,0],"alphaMode":"OPAQUE","doubleSided":true}],"meshes":[{"primitives":[{"mode":4,"attributes":{"POSITION":1,"NORMAL":2,"TEXCOORD_0":3},"material":0,"indices":0}]},{"primitives":[{"mode":4,"attributes":{"POSITION":5,"NORMAL":6,"TEXCOORD_0":7},"material":1,"indices":4}]},{"primitives":[{"mode":4,"attributes":{"POSITION":9,"NORMAL":10,"TEXCOORD_0":11},"material":2,"indices":8}]},{"primitives":[{"mode":4,"attributes":{"POSITION":13,"NORMAL":14,"TEXCOORD_0":15},"material":3,"indices":12}]}],"accessors":[{"bufferView":0,"byteOffset":0,"componentType":5125,"count":2472,"type":"SCALAR"},{"bufferView":1,"byteOffset":0,"componentType":5126,"count":1242,"max":[-3.0799999237060547,12.84000015258789,8.199999809265137],"min":[-10.21687126159668,-3.269998550415039,0.20000000298023224],"type":"VEC3"},{"bufferView":2,"byteOffset":0,"componentType":5126,"count":1242,"type":"VEC3"},{"bufferView":3,"byteOffset":0,"componentType":5126,"count":1242,"type":"VEC2"},{"bufferView":4,"byteOffset":0,"componentType":5125,"count":1992,"type":"SCALAR"},{"bufferView":5,"byteOffset":0,"componentType":5126,"count":996,"max":[10.296112060546875,-6.269998550415039,8.199999809265137],"min":[-10.36611270904541,-13.44999885559082,0.20000000298023224],"type":"VEC3"},{"bufferView":6,"byteOffset":0,"componentType":5126,"count":996,"type":"VEC3"},{"bufferView":7,"byteOffset":0,"componentType":5126,"count":996,"type":"VEC2"},{"bufferView":8,"byteOffset":0,"componentType":5125,"count":1068,"type":"SCALAR"},{"bufferView":9,"byteOffset":0,"componentType":5126,"count":530,"max":[20.780000686645508,20.780000686645508,8.199999809265137],"min":[-20.780000686645508,-20.780000686645508,0.20000000298023224],"type":"VEC3"},{"bufferView":10,"byteOffset":0,"componentType":5126,"count":530,"type":"VEC3"},{"bufferView":11,"byteOffset":0,"componentType":5126,"count":530,"type":"VEC2"},{"bufferView":12,"byteOffset":0,"componentType":5125,"count":3312,"type":"SCALAR"},{"bufferView":13,"byteOffset":0,"componentType":5126,"count":1662,"max":[10.399999618530273,12.851690292358398,8.199999809265137],"min":[3.049999237060547,-3.2912940979003906,0.20000000298023224],"type":"VEC3"},{"bufferView":14,"byteOffset":0,"componentType":5126,"count":1662,"type":"VEC3"},{"bufferView":15,"byteOffset":0,"componentType":5126,"count":1662,"type":"VEC2"}],"bufferViews":[{"buffer":0,"byteOffset":0,"byteLength":9888,"target":34963},{"buffer":0,"byteOffset":9888,"byteLength":14904,"target":34962},{"buffer":0,"byteOffset":24792,"byteLength":14904,"target":34962},{"buffer":0,"byteOffset":39696,"byteLength":9936,"target":34962},{"buffer":0,"byteOffset":49632,"byteLength":7968,"target":34963},{"buffer":0,"byteOffset":57600,"byteLength":11952,"target":34962},{"buffer":0,"byteOffset":69552,"byteLength":11952,"target":34962},{"buffer":0,"byteOffset":81504,"byteLength":7968,"target":34962},{"buffer":0,"byteOffset":89472,"byteLength":4272,"target":34963},{"buffer":0,"byteOffset":93744,"byteLength":6360,"target":34962},{"buffer":0,"byteOffset":100104,"byteLength":6360,"target":34962},{"buffer":0,"byteOffset":106464,"byteLength":4240,"target":34962},{"buffer":0,"byteOffset":110704,"byteLength":13248,"target":34963},{"buffer":0,"byteOffset":123952,"byteLength":19944,"target":34962},{"buffer":0,"byteOffset":143896,"byteLength":19944,"target":34962},{"buffer":0,"byteOffset":163840,"byteLength":13296,"target":34962}],"cameras":[{"name":"Camera","type":"orthographic","extras":{"targetDistance":0.17465084440729362},"orthographic":{"xmag":0.1531686157934519,"ymag":0.11013439943662293,"zfar":26.599392026679826,"znear":0.0016773060237908243}}],"scene":0,"scenes":[{"nodes":[0,6],"name":"sdg-face"}],"extensionsUsed":["KHR_texture_transform"],"buffers":[{"byteLength":177136,"uri":"sdg-face.bin"}]}