{"asset":{"version":"2.0","generator":"VECTARY"},"nodes":[{"translation":[-0.002041445591834174,0.08784044535210758,-0.010807873122333334],"scale":[0.0013150220034197184,0.00047961076465918796,0.0013379897844833695],"rotation":[-0.6188767149514335,0.34204036558704887,0.3420403655870489,0.6188767149514336],"name":"G","mesh":0},{"translation":[-0.021599610490723876,0.08187609747425756,0.020318647496307],"scale":[0.0013150220034197182,0.00047961076465918796,0.0016094168406233368],"rotation":[-0.6794709838067406,0.6794709838067408,-0.19575285991448435,0.1957528599144847],"name":"D","mesh":1},{"translation":[-0.029532193536838506,0.08784044535210757,0.03294323221682856],"scale":[0.0013150220034197184,0.00047961076465918796,0.0013379897844833695],"rotation":[-0.6188767149514335,0.34204036558704887,0.3420403655870489,0.6188767149514336],"name":"S","mesh":2},{"translation":[0,0.09282432762601574,7.105427357601002e-18],"scale":[0.0009999999999999998,0.0009999999999999998,0.0009999999999999998],"rotation":[-0.8755867943409688,-1.1102230246251565e-16,0.4830608300987631,2.220446049250313e-16],"name":"Torus","mesh":3},{"translation":[0.4098805000813975,0.10416306655998026,0.28636202682628353],"scale":[1,1,1],"rotation":[-0.01581559651936365,0.4349742462632266,0.00764144674458489,0.9002715591898506],"name":"Camera","camera":0}],"materials":[{"pbrMetallicRoughness":{"baseColorFactor":[0.8277257944550336,0.025371276904734584,0.09151835299891947,1],"metallicFactor":0,"roughnessFactor":0.2},"name":"3D Text material 1","emissiveFactor":[0,0,0],"alphaMode":"OPAQUE","doubleSided":false},{"pbrMetallicRoughness":{"baseColorFactor":[0.8277257944550336,0.025371276904734584,0.09151835299891947,1],"metallicFactor":0,"roughnessFactor":0.2},"name":"3D Text material 2","emissiveFactor":[0,0,0],"alphaMode":"OPAQUE","doubleSided":false},{"pbrMetallicRoughness":{"baseColorFactor":[0.8277257944550336,0.025371276904734584,0.09151835299891947,1],"metallicFactor":0,"roughnessFactor":0.2},"name":"3D Text material","emissiveFactor":[0,0,0],"alphaMode":"OPAQUE","doubleSided":false},{"pbrMetallicRoughness":{"baseColorFactor":[0.8277257944550336,0.025371276904734584,0.09151835299891947,1],"metallicFactor":0,"roughnessFactor":0.2},"name":"Torus material","emissiveFactor":[0,0,0],"alphaMode":"OPAQUE","doubleSided":false}],"meshes":[{"primitives":[{"mode":4,"attributes":{"POSITION":1,"NORMAL":2,"TEXCOORD_0":3},"material":0,"indices":0}]},{"primitives":[{"mode":4,"attributes":{"POSITION":5,"NORMAL":6,"TEXCOORD_0":7},"material":1,"indices":4}]},{"primitives":[{"mode":4,"attributes":{"POSITION":9,"NORMAL":10,"TEXCOORD_0":11},"material":2,"indices":8}]},{"primitives":[{"mode":4,"attributes":{"POSITION":13,"NORMAL":14,"TEXCOORD_0":15},"material":3,"indices":12}]}],"accessors":[{"bufferView":0,"byteOffset":0,"componentType":5125,"count":1608,"type":"SCALAR"},{"bufferView":1,"byteOffset":0,"componentType":5126,"count":568,"max":[27.049999237060547,2.167624862901298e-15,35.400001525878906],"min":[3.5999999046325684,-15,-0.4000000059604645],"type":"VEC3"},{"bufferView":2,"byteOffset":0,"componentType":5126,"count":568,"type":"VEC3"},{"bufferView":3,"byteOffset":0,"componentType":5126,"count":568,"type":"VEC2"},{"bufferView":4,"byteOffset":0,"componentType":5125,"count":816,"type":"SCALAR"},{"bufferView":5,"byteOffset":0,"componentType":5126,"count":288,"max":[27.799999237060547,2.143131846440256e-15,35],"min":[4.699999809265137,-15,0],"type":"VEC3"},{"bufferView":6,"byteOffset":0,"componentType":5126,"count":288,"type":"VEC3"},{"bufferView":7,"byteOffset":0,"componentType":5126,"count":288,"type":"VEC2"},{"bufferView":8,"byteOffset":0,"componentType":5125,"count":1980,"type":"SCALAR"},{"bufferView":9,"byteOffset":0,"componentType":5126,"count":696,"max":[26.5,2.167624862901298e-15,35.400001525878906],"min":[2.5999999046325684,-15,-0.4000000059604645],"type":"VEC3"},{"bufferView":10,"byteOffset":0,"componentType":5126,"count":696,"type":"VEC3"},{"bufferView":11,"byteOffset":0,"componentType":5126,"count":696,"type":"VEC2"},{"bufferView":12,"byteOffset":0,"componentType":5125,"count":52140,"type":"SCALAR"},{"bufferView":13,"byteOffset":0,"componentType":5126,"count":8904,"max":[79.9918441772461,79.97603607177734,9.997961044311523],"min":[-79.9918441772461,-79.97603607177734,0.0020389556884765625],"type":"VEC3"},{"bufferView":14,"byteOffset":0,"componentType":5126,"count":8904,"type":"VEC3"},{"bufferView":15,"byteOffset":0,"componentType":5126,"count":8904,"type":"VEC2"}],"bufferViews":[{"buffer":0,"byteOffset":0,"byteLength":6432,"target":34963},{"buffer":0,"byteOffset":6432,"byteLength":6816,"target":34962},{"buffer":0,"byteOffset":13248,"byteLength":6816,"target":34962},{"buffer":0,"byteOffset":20064,"byteLength":4544,"target":34962},{"buffer":0,"byteOffset":24608,"byteLength":3264,"target":34963},{"buffer":0,"byteOffset":27872,"byteLength":3456,"target":34962},{"buffer":0,"byteOffset":31328,"byteLength":3456,"target":34962},{"buffer":0,"byteOffset":34784,"byteLength":2304,"target":34962},{"buffer":0,"byteOffset":37088,"byteLength":7920,"target":34963},{"buffer":0,"byteOffset":45008,"byteLength":8352,"target":34962},{"buffer":0,"byteOffset":53360,"byteLength":8352,"target":34962},{"buffer":0,"byteOffset":61712,"byteLength":5568,"target":34962},{"buffer":0,"byteOffset":67280,"byteLength":208560,"target":34963},{"buffer":0,"byteOffset":275840,"byteLength":106848,"target":34962},{"buffer":0,"byteOffset":382688,"byteLength":106848,"target":34962},{"buffer":0,"byteOffset":489536,"byteLength":71232,"target":34962}],"cameras":[{"name":"Camera","type":"perspective","extras":{"targetDistance":0.5374075834757253},"perspective":{"aspectRatio":1.399783315276273,"yfov":0.6108652381980153,"zfar":40.38552672475003,"znear":0.0030921987954348716}}],"scene":0,"scenes":[{"nodes":[0,1,2,3,4],"name":"sdg-coin-face"}],"extensionsUsed":["KHR_texture_transform"],"buffers":[{"byteLength":560768,"uri":"sdg-coin-face.bin"}]}