{"asset":{"version":"2.0","generator":"VECTARY"},"nodes":[{"translation":[-0.05344001717803304,0.1040728857965696,-0.03868839988297934],"scale":[0.001,0.001,0.001],"rotation":[-0.47090253696635576,-0.5274948347412037,-0.6598581044216529,0.25414028021756613],"name":"S","mesh":0},{"translation":[-0.06661883686423394,0.10765138957325164,0.004307795328254564],"scale":[0.0010000000000000002,0.0009131610077757394,0.001],"rotation":[-0.625458382281962,-0.32985119680430297,-0.5295747735610719,0.4685622255450599],"name":"G","mesh":1},{"translation":[-0.059845838985493886,0.10297873482141788,-0.02520730516686519],"scale":[0.0012536780694326036,0.0011448099293094197,0.0012536780694326038],"rotation":[0.027177882611643667,-0.037496759560038395,-0.665574484706255,0.7448932547870522],"name":"D","mesh":2},{"translation":[-0.012923753934525018,0.018170348020477307,0],"scale":[0.0015598457510323154,0.0015598457510323154,0.0015598457510323154],"rotation":[-0.5714263208822334,0.41649965162409774,0.2784776375117978,0.6499616953373851],"name":"Sphere 1","mesh":3},{"translation":[-0.48026723426314355,0.1844348328579762,-0.008950049023223073],"scale":[1,1,1],"rotation":[-0.08669813004645872,-0.7082904785386697,-0.08835826654351775,0.6949826249564331],"name":"Camera","camera":0}],"materials":[{"pbrMetallicRoughness":{"baseColorFactor":[0.9157501292792527,0.7299188933520706,0.23489525921588023,1],"metallicFactor":0,"roughnessFactor":1},"name":"3D Text material","emissiveFactor":[0,0,0],"alphaMode":"OPAQUE","doubleSided":false},{"pbrMetallicRoughness":{"baseColorFactor":[0.9157501292792527,0.7299188933520706,0.23489525921588023,1],"metallicFactor":0,"roughnessFactor":1},"name":"3D Text material 1","emissiveFactor":[0,0,0],"alphaMode":"OPAQUE","doubleSided":false},{"pbrMetallicRoughness":{"baseColorFactor":[0.9157501292792527,0.7299188933520706,0.23489525921588023,1],"metallicFactor":0,"roughnessFactor":1},"name":"3D Text material 2","emissiveFactor":[0,0,0],"alphaMode":"OPAQUE","doubleSided":false},{"pbrMetallicRoughness":{"baseColorFactor":[0.9157501292792527,0.1904628788224093,0.2932161491323746,1],"metallicFactor":0,"roughnessFactor":1},"name":"Material","emissiveFactor":[0,0,0],"alphaMode":"OPAQUE","doubleSided":false}],"meshes":[{"primitives":[{"mode":4,"attributes":{"POSITION":1,"NORMAL":2,"TEXCOORD_0":3},"material":0,"indices":0}]},{"primitives":[{"mode":4,"attributes":{"POSITION":5,"NORMAL":6,"TEXCOORD_0":7},"material":1,"indices":4}]},{"primitives":[{"mode":4,"attributes":{"POSITION":9,"NORMAL":10,"TEXCOORD_0":11},"material":2,"indices":8}]},{"primitives":[{"mode":4,"attributes":{"POSITION":13,"NORMAL":14,"TEXCOORD_0":15},"material":3,"indices":12}]}],"accessors":[{"bufferView":0,"byteOffset":0,"componentType":5125,"count":2196,"type":"SCALAR"},{"bufferView":1,"byteOffset":0,"componentType":5126,"count":760,"max":[25.450000762939453,2.0390367911786228e-15,33.29999923706055],"min":[1.899999976158142,-15,-0.6000000238418579],"type":"VEC3"},{"bufferView":2,"byteOffset":0,"componentType":5126,"count":760,"type":"VEC3"},{"bufferView":3,"byteOffset":0,"componentType":5126,"count":760,"type":"VEC2"},{"bufferView":4,"byteOffset":0,"componentType":5125,"count":1380,"type":"SCALAR"},{"bufferView":5,"byteOffset":0,"componentType":5126,"count":488,"max":[28.299999237060547,2.0390367911786228e-15,33.29999923706055],"min":[2.450000047683716,-15,-0.6000000238418579],"type":"VEC3"},{"bufferView":6,"byteOffset":0,"componentType":5126,"count":488,"type":"VEC3"},{"bufferView":7,"byteOffset":0,"componentType":5126,"count":488,"type":"VEC2"},{"bufferView":8,"byteOffset":0,"componentType":5125,"count":672,"type":"SCALAR"},{"bufferView":9,"byteOffset":0,"componentType":5126,"count":240,"max":[28.799999237060547,2.0022975841244147e-15,32.70000076293945],"min":[4.150000095367432,-15,0],"type":"VEC3"},{"bufferView":10,"byteOffset":0,"componentType":5126,"count":240,"type":"VEC3"},{"bufferView":11,"byteOffset":0,"componentType":5126,"count":240,"type":"VEC2"},{"bufferView":12,"byteOffset":0,"componentType":5125,"count":183876,"type":"SCALAR"},{"bufferView":13,"byteOffset":0,"componentType":5126,"count":31153,"max":[50,49.98959732055664,100],"min":[-50,-49.98959732055664,0],"type":"VEC3"},{"bufferView":14,"byteOffset":0,"componentType":5126,"count":31153,"type":"VEC3"},{"bufferView":15,"byteOffset":0,"componentType":5126,"count":31153,"type":"VEC2"}],"bufferViews":[{"buffer":0,"byteOffset":0,"byteLength":8784,"target":34963},{"buffer":0,"byteOffset":8784,"byteLength":9120,"target":34962},{"buffer":0,"byteOffset":17904,"byteLength":9120,"target":34962},{"buffer":0,"byteOffset":27024,"byteLength":6080,"target":34962},{"buffer":0,"byteOffset":33104,"byteLength":5520,"target":34963},{"buffer":0,"byteOffset":38624,"byteLength":5856,"target":34962},{"buffer":0,"byteOffset":44480,"byteLength":5856,"target":34962},{"buffer":0,"byteOffset":50336,"byteLength":3904,"target":34962},{"buffer":0,"byteOffset":54240,"byteLength":2688,"target":34963},{"buffer":0,"byteOffset":56928,"byteLength":2880,"target":34962},{"buffer":0,"byteOffset":59808,"byteLength":2880,"target":34962},{"buffer":0,"byteOffset":62688,"byteLength":1920,"target":34962},{"buffer":0,"byteOffset":64608,"byteLength":735504,"target":34963},{"buffer":0,"byteOffset":800112,"byteLength":373836,"target":34962},{"buffer":0,"byteOffset":1173948,"byteLength":373836,"target":34962},{"buffer":0,"byteOffset":1547784,"byteLength":249224,"target":34962}],"cameras":[{"name":"Camera","type":"perspective","extras":{"targetDistance":0.461837479806501},"perspective":{"aspectRatio":1.3907427341227125,"yfov":0.6108652381980153,"zfar":37.51357559020606,"znear":0.0027974459158369375}}],"scene":0,"scenes":[{"nodes":[0,1,2,3,4],"name":"sdg"}],"extensionsUsed":["KHR_texture_transform"],"buffers":[{"byteLength":1797008,"uri":"sdg.bin"}]}