{"asset":{"version":"2.0","generator":"VECTARY"},"nodes":[{"translation":[-0.12622839121111404,0.0757983563244342,0.14871947996147644],"scale":[0.001,0.001,0.0018648239348068036],"rotation":[-5.551115123125783e-17,5.551115123125783e-17,0.7071067811865475,-0.7071067811865475],"name":"D","mesh":0},{"translation":[-0.12622839121111404,0.08039297798688343,0.18552238304012428],"scale":[0.001,0.001,0.001],"rotation":[-0.4999999999999999,-0.5,-0.5000000000000001,0.5],"name":"G","mesh":1},{"translation":[-0.12622839121111404,0.08039297798688345,0.14382204580989258],"scale":[0.001,0.001,0.001],"rotation":[-0.4999999999999999,-0.5,-0.5000000000000001,0.5],"name":"S","mesh":2},{"translation":[-0.11918803795285743,0.08135112720938721,0.17884023073061556],"scale":[0.0011499934137072672,0.0011499934137072672,0.00016153324555393217],"rotation":[0,-0.7071067811865475,0,0.7071067811865476],"name":"Cylinder","mesh":3},{"translation":[-0.6545949926995478,0.13085849688525233,0.2702350447266246],"scale":[1,1,1],"rotation":[-0.08867249774204516,-0.6596069218137984,-0.07880599167157507,0.7421896742182366],"name":"Camera","camera":0}],"materials":[{"pbrMetallicRoughness":{"baseColorFactor":[0.9157501292792527,0.7299188933520706,0.23489525921588023,1],"metallicFactor":0,"roughnessFactor":0.2},"name":"3D Text material 5","emissiveFactor":[0,0,0],"alphaMode":"OPAQUE","doubleSided":false},{"pbrMetallicRoughness":{"baseColorFactor":[0.9157501292792527,0.7299188933520706,0.23489525921588023,1],"metallicFactor":0,"roughnessFactor":0.2},"name":"3D Text material 4","emissiveFactor":[0,0,0],"alphaMode":"OPAQUE","doubleSided":false},{"pbrMetallicRoughness":{"baseColorFactor":[0.9157501292792527,0.7299188933520706,0.23489525921588023,1],"metallicFactor":0,"roughnessFactor":0.2},"name":"3D Text material 3","emissiveFactor":[0,0,0],"alphaMode":"OPAQUE","doubleSided":false},{"pbrMetallicRoughness":{"baseColorFactor":[0.8912620368134188,0.2388279842720483,0.33922333493532675,1],"metallicFactor":0,"roughnessFactor":0},"name":"Cylinder material","emissiveFactor":[0,0,0],"alphaMode":"OPAQUE","doubleSided":false}],"meshes":[{"primitives":[{"mode":4,"attributes":{"POSITION":1,"NORMAL":2,"TEXCOORD_0":3},"material":0,"indices":0}]},{"primitives":[{"mode":4,"attributes":{"POSITION":5,"NORMAL":6,"TEXCOORD_0":7},"material":1,"indices":4}]},{"primitives":[{"mode":4,"attributes":{"POSITION":9,"NORMAL":10,"TEXCOORD_0":11},"material":2,"indices":8}]},{"primitives":[{"mode":4,"attributes":{"POSITION":13,"NORMAL":14,"TEXCOORD_0":15},"material":3,"indices":12}]}],"accessors":[{"bufferView":0,"byteOffset":0,"componentType":5125,"count":672,"type":"SCALAR"},{"bufferView":1,"byteOffset":0,"componentType":5126,"count":240,"max":[28.799999237060547,2.0022975841244147e-15,32.70000076293945],"min":[4.150000095367432,-15,0],"type":"VEC3"},{"bufferView":2,"byteOffset":0,"componentType":5126,"count":240,"type":"VEC3"},{"bufferView":3,"byteOffset":0,"componentType":5126,"count":240,"type":"VEC2"},{"bufferView":4,"byteOffset":0,"componentType":5125,"count":1380,"type":"SCALAR"},{"bufferView":5,"byteOffset":0,"componentType":5126,"count":488,"max":[28.299999237060547,2.0390367911786228e-15,33.29999923706055],"min":[2.450000047683716,-15,-0.6000000238418579],"type":"VEC3"},{"bufferView":6,"byteOffset":0,"componentType":5126,"count":488,"type":"VEC3"},{"bufferView":7,"byteOffset":0,"componentType":5126,"count":488,"type":"VEC2"},{"bufferView":8,"byteOffset":0,"componentType":5125,"count":2196,"type":"SCALAR"},{"bufferView":9,"byteOffset":0,"componentType":5126,"count":760,"max":[25.450000762939453,2.0390367911786228e-15,33.29999923706055],"min":[1.899999976158142,-15,-0.6000000238418579],"type":"VEC3"},{"bufferView":10,"byteOffset":0,"componentType":5126,"count":760,"type":"VEC3"},{"bufferView":11,"byteOffset":0,"componentType":5126,"count":760,"type":"VEC2"},{"bufferView":12,"byteOffset":0,"componentType":5125,"count":528,"type":"SCALAR"},{"bufferView":13,"byteOffset":0,"componentType":5126,"count":180,"max":[50,50,100],"min":[-50,-50,0],"type":"VEC3"},{"bufferView":14,"byteOffset":0,"componentType":5126,"count":180,"type":"VEC3"},{"bufferView":15,"byteOffset":0,"componentType":5126,"count":180,"type":"VEC2"}],"bufferViews":[{"buffer":0,"byteOffset":0,"byteLength":2688,"target":34963},{"buffer":0,"byteOffset":2688,"byteLength":2880,"target":34962},{"buffer":0,"byteOffset":5568,"byteLength":2880,"target":34962},{"buffer":0,"byteOffset":8448,"byteLength":1920,"target":34962},{"buffer":0,"byteOffset":10368,"byteLength":5520,"target":34963},{"buffer":0,"byteOffset":15888,"byteLength":5856,"target":34962},{"buffer":0,"byteOffset":21744,"byteLength":5856,"target":34962},{"buffer":0,"byteOffset":27600,"byteLength":3904,"target":34962},{"buffer":0,"byteOffset":31504,"byteLength":8784,"target":34963},{"buffer":0,"byteOffset":40288,"byteLength":9120,"target":34962},{"buffer":0,"byteOffset":49408,"byteLength":9120,"target":34962},{"buffer":0,"byteOffset":58528,"byteLength":6080,"target":34962},{"buffer":0,"byteOffset":64608,"byteLength":2112,"target":34963},{"buffer":0,"byteOffset":66720,"byteLength":2160,"target":34962},{"buffer":0,"byteOffset":68880,"byteLength":2160,"target":34962},{"buffer":0,"byteOffset":71040,"byteLength":1440,"target":34962}],"cameras":[{"name":"Camera","type":"perspective","extras":{"targetDistance":0.6687883051684655},"perspective":{"aspectRatio":1.3818181818181818,"yfov":0.6108652381980153,"zfar":45.378493445746265,"znear":0.0036046348536423797}}],"scene":0,"scenes":[{"nodes":[0,1,2,3,4],"name":"sdgCoin"}],"extensionsUsed":["KHR_texture_transform"],"buffers":[{"byteLength":72480,"uri":"sdg.bin"}]}