<?xml version="1.0" encoding="utf-8"?>
<!-- Generator: Adobe Illustrator 24.1.0, SVG Export Plug-In . SVG Version: 6.00 Build 0)  -->
<svg version="1.1" id="Layer_1" xmlns="http://www.w3.org/2000/svg" xmlns:xlink="http://www.w3.org/1999/xlink" x="0px" y="0px"
	 viewBox="0 0 22 18" style="enable-background:new 0 0 22 18;" xml:space="preserve">
<style type="text/css">
	.st0{fill:#EABB4E;}
</style>
<g>
	<path id="Path_83_3_" class="st0" d="M3.6,2.8c0.8-1.1,0.8-2.5,1.2-2.5S5.2,2.2,6,2.9s2.9,0.6,3,1c0,0.4-2.5,0.6-3.2,1.4
		s-0.6,2.4-1,2.4S4.2,5.9,3.6,5.3c-1-1-3.1-1-3.1-1.4S3,3.5,3.6,2.8z"/>
	<path id="Path_83_4_" class="st0" d="M13,9.9c1.3-1.7,1.2-3.9,1.8-3.9s0.7,2.9,2,4s4.6,1,4.7,1.6c0.1,0.6-3.7,0.8-4.8,2.1
		s-1.1,4-1.8,4c-0.7,0-1-3-1.9-4c-1.5-1.5-4.8-1.3-4.8-2S12.2,11,13,9.9z"/>
</g>
</svg>
